<svg id="Ebene_1" data-name="Ebene 1" xmlns="http://www.w3.org/2000/svg" width="195" height="101" viewBox="0 0 195 101" xmlns:xlink="http://www.w3.org/1999/xlink">
 <title>
  DHL_monogram_rgb
 </title>
 <g>
  <rect width="195" height="101" fill="#fc0">
  </rect>
  <path d="M41.3993,59.9192H0v8.0983H35.4487ZM0,83H24.4138l5.9238-8.0433H0ZM52.4685,44.8922H0V52.98H46.506Zm69.8538-2.7232c-2.0077,2.717-5.37,7.45-7.4151,10.21-1.0382,1.4-2.915,3.9562,3.3062,3.9562H149.751s5.2749-7.18,9.6987-13.1811C165.4667,34.9877,159.97,18,138.4622,18H53.7609L39.0756,37.9525h81.2312C124.3519,37.9525,124.2989,39.4894,122.3223,42.169Zm44.58,2.7237-5.9238,8.0433H195V44.8927ZM144.582,63.274H108.24l-13.8-.0007c-6.22,0-4.3428-2.5564-3.3047-3.9593,2.0452-2.7622,5.4877-7.4873,7.4954-10.2074,1.9766-2.6795,3.2022-4.2149-.8445-4.2149H61.1823L33.1328,83h71.93C126.3933,83,139.2307,69.9776,144.582,63.274Zm5.3351,4.699H195V59.8748H155.8677ZM138.8754,83H195V74.9121H144.8183Z" fill="#d40511">
  </path>
 </g>
</svg>