<?xml version="1.0" encoding="UTF-8" standalone="no"?>
<svg
   xmlns:dc="http://purl.org/dc/elements/1.1/"
   xmlns:cc="http://creativecommons.org/ns#"
   xmlns:rdf="http://www.w3.org/1999/02/22-rdf-syntax-ns#"
   xmlns:svg="http://www.w3.org/2000/svg"
   xmlns="http://www.w3.org/2000/svg"
   version="1.1"
   id="svg9226"
   viewBox="0 0 214.75338 88.315047"
   height="24.924469mm"
   width="60.608177mm">
  <defs
     id="defs9228">
    <linearGradient
       id="linearGradient5206"
       spreadMethod="pad"
       gradientTransform="matrix(10.768005,0,0,-10.768005,38.977997,45.115997)"
       gradientUnits="userSpaceOnUse"
       y2="0"
       x2="1"
       y1="0"
       x1="0">
      <stop
         id="stop5208"
         offset="0"
         style="stop-opacity:1;stop-color:#223185" />
      <stop
         id="stop5210"
         offset="1"
         style="stop-opacity:1;stop-color:#00b2eb" />
    </linearGradient>
    <linearGradient
       id="linearGradient5186"
       spreadMethod="pad"
       gradientTransform="matrix(39.093994,0,0,-39.093994,66.862,42.306)"
       gradientUnits="userSpaceOnUse"
       y2="0"
       x2="1"
       y1="0"
       x1="0">
      <stop
         id="stop5188"
         offset="0"
         style="stop-opacity:1;stop-color:#223185" />
      <stop
         id="stop5190"
         offset="1"
         style="stop-opacity:1;stop-color:#00b2eb" />
    </linearGradient>
    <linearGradient
       id="linearGradient5166"
       spreadMethod="pad"
       gradientTransform="matrix(50.563995,0,0,-50.563995,57.710007,55.675995)"
       gradientUnits="userSpaceOnUse"
       y2="0"
       x2="1"
       y1="0"
       x1="0">
      <stop
         id="stop5168"
         offset="0"
         style="stop-opacity:1;stop-color:#ec212f" />
      <stop
         id="stop5170"
         offset="1"
         style="stop-opacity:1;stop-color:#ffd002" />
    </linearGradient>
    <linearGradient
       id="linearGradient5146"
       spreadMethod="pad"
       gradientTransform="matrix(31.315994,0,0,-31.315994,102.284,42.386002)"
       gradientUnits="userSpaceOnUse"
       y2="0"
       x2="1"
       y1="0"
       x1="0">
      <stop
         id="stop5148"
         offset="0"
         style="stop-opacity:1;stop-color:#223185" />
      <stop
         id="stop5150"
         offset="1"
         style="stop-opacity:1;stop-color:#00b2eb" />
    </linearGradient>
    <linearGradient
       id="linearGradient5126"
       spreadMethod="pad"
       gradientTransform="matrix(9.1228943,0,0,-9.1228943,53.436005,37.615997)"
       gradientUnits="userSpaceOnUse"
       y2="0"
       x2="1"
       y1="0"
       x1="0">
      <stop
         id="stop5128"
         offset="0"
         style="stop-opacity:1;stop-color:#ec212f" />
      <stop
         id="stop5130"
         offset="1"
         style="stop-opacity:1;stop-color:#ffd002" />
    </linearGradient>
  </defs>
  <metadata
     id="metadata9231">
    <rdf:RDF>
      <cc:Work
         rdf:about="">
        <dc:format>image/svg+xml</dc:format>
        <dc:type
           rdf:resource="http://purl.org/dc/dcmitype/StillImage" />
        <dc:title></dc:title>
      </cc:Work>
    </rdf:RDF>
  </metadata>
  <g
     transform="translate(-404.55674,-463.72967)"
     id="layer1">
    <g
       transform="matrix(1.9966471,0,0,-1.9966471,497.14526,526.9269)"
       id="g4246">
      <path
         id="path4248"
         style="fill:#ffffff;fill-opacity:1;fill-rule:nonzero;stroke:none"
         d="M 0,0 C -0.042,-0.13 -0.067,-0.22 -0.059,-0.22 L -0.068,0 l -0.854,17.4 -7.374,-0.06 1.715,-24.42 9.888,0 6.03,14.73 0,-14.76 10.075,0 L 31.298,17.76 23.193,17.64 15.306,0.19 15.239,0.03 15.236,0.21 14.984,17.58 6.917,17.51 0,0" />
    </g>
    <g
       transform="matrix(1.9966471,0,0,-1.9966471,497.3629,526.72723)"
       id="g4250">
      <path
         id="path4252"
         style="fill:#fbfbfb;fill-opacity:1;fill-rule:nonzero;stroke:none"
         d="M 0,0 C -0.043,-0.13 -0.067,-0.22 -0.059,-0.22 L -0.068,0 l -0.855,17.4 -7.373,-0.06 1.714,-24.42 9.889,0 6.03,14.73 0,-14.76 10.075,0 L 31.297,17.76 23.193,17.64 15.305,0.19 15.238,0.03 15.235,0.21 14.983,17.58 6.916,17.51 0,0" />
    </g>
    <g
       transform="matrix(1.9966471,0,0,-1.9966471,497.57853,526.52757)"
       id="g4254">
      <path
         id="path4256"
         style="fill:#f7f7f7;fill-opacity:1;fill-rule:nonzero;stroke:none"
         d="M 0,0 C -0.042,-0.13 -0.067,-0.22 -0.059,-0.22 L -0.068,0 l -0.854,17.4 -7.374,-0.05 1.715,-24.43 9.888,0 6.029,14.73 0,-14.76 10.077,0 L 31.298,17.77 23.193,17.64 15.306,0.19 15.239,0.03 15.236,0.21 14.984,17.58 6.917,17.51 0,0" />
    </g>
    <g
       transform="matrix(1.9966471,0,0,-1.9966471,497.79417,526.3279)"
       id="g4258">
      <path
         id="path4260"
         style="fill:#f2f2f3;fill-opacity:1;fill-rule:nonzero;stroke:none"
         d="M 0,0 C -0.043,-0.13 -0.066,-0.22 -0.058,-0.22 L -0.067,0 l -0.855,17.4 -7.373,-0.05 1.714,-24.43 9.889,0 6.029,14.73 0,-14.76 10.076,0 L 31.299,17.77 23.194,17.64 15.306,0.19 15.24,0.03 15.236,0.21 14.984,17.58 6.917,17.51 0,0" />
    </g>
    <g
       transform="matrix(1.9966471,0,0,-1.9966471,498.01181,526.12824)"
       id="g4262">
      <path
         id="path4264"
         style="fill:#eeeeee;fill-opacity:1;fill-rule:nonzero;stroke:none"
         d="M 0,0 C -0.043,-0.13 -0.067,-0.21 -0.059,-0.21 L -0.068,0 l -0.854,17.4 -7.374,-0.05 1.714,-24.43 9.889,0 6.03,14.74 0,-14.769 L 19.413,-7.1 31.298,17.77 23.193,17.641 15.306,0.19 15.239,0.03 15.236,0.21 14.983,17.58 6.916,17.51 0,0" />
    </g>
    <g
       transform="matrix(1.9966471,0,0,-1.9966471,498.22944,525.92858)"
       id="g4266">
      <path
         id="path4268"
         style="fill:#e9eaea;fill-opacity:1;fill-rule:nonzero;stroke:none"
         d="m 0,0 c -0.044,-0.13 -0.068,-0.21 -0.059,-0.21 l -0.01,0.21 -0.854,17.4 -7.373,-0.05 1.714,-24.43 9.889,0 6.03,14.74 0,-14.77 L 19.412,-7.1 31.298,17.77 23.192,17.64 15.305,0.19 15.239,0.03 15.235,0.21 14.983,17.58 6.916,17.51 0,0" />
    </g>
    <g
       transform="matrix(1.9966471,0,0,-1.9966471,498.44508,525.72891)"
       id="g4270">
      <path
         id="path4272"
         style="fill:#e4e5e6;fill-opacity:1;fill-rule:nonzero;stroke:none"
         d="m 0,0 c -0.044,-0.13 -0.067,-0.21 -0.058,-0.21 l -0.01,0.21 -0.854,17.4 -7.374,-0.05 1.714,-24.43 9.889,0 6.03,14.74 0,-14.77 L 19.413,-7.1 31.298,17.77 23.193,17.64 15.306,0.2 15.239,0.03 15.236,0.21 14.984,17.58 6.916,17.51 0,0" />
    </g>
    <g
       transform="matrix(1.9966471,0,0,-1.9966471,498.66271,525.52925)"
       id="g4274">
      <path
         id="path4276"
         style="fill:#dfe0e1;fill-opacity:1;fill-rule:nonzero;stroke:none"
         d="m 0,0 c -0.044,-0.13 -0.068,-0.21 -0.059,-0.21 l -0.01,0.21 -0.854,17.41 -7.373,-0.06 1.713,-24.43 9.89,0 6.029,14.74 0,-14.76 10.077,0 L 31.298,17.77 23.192,17.64 15.305,0.2 15.239,0.03 15.235,0.211 14.983,17.581 6.916,17.51 0,0" />
    </g>
    <g
       transform="matrix(1.9966471,0,0,-1.9966471,498.87835,525.32958)"
       id="g4278">
      <path
         id="path4280"
         style="fill:#dadbdc;fill-opacity:1;fill-rule:nonzero;stroke:none"
         d="m 0,0 c -0.044,-0.13 -0.067,-0.21 -0.058,-0.21 l -0.01,0.21 -0.854,17.41 -7.374,-0.06 1.714,-24.43 9.89,0 6.029,14.74 0,-14.76 10.076,0 L 31.298,17.77 23.193,17.64 15.306,0.2 15.24,0.03 15.236,0.21 14.984,17.58 6.917,17.51 0,0" />
    </g>
    <g
       transform="matrix(1.9966471,0,0,-1.9966471,499.09399,525.12992)"
       id="g4282">
      <path
         id="path4284"
         style="fill:#d5d6d7;fill-opacity:1;fill-rule:nonzero;stroke:none"
         d="m 0,0 c -0.044,-0.13 -0.067,-0.21 -0.058,-0.21 l -0.01,0.21 -0.854,17.41 -7.374,-0.06 1.714,-24.43 9.89,0 6.03,14.74 0,-14.76 10.076,0 L 31.299,17.77 23.193,17.64 15.306,0.2 15.24,0.04 15.237,0.21 14.984,17.58 6.917,17.51 0,0" />
    </g>
    <g
       transform="matrix(1.9966471,0,0,-1.9966471,499.31162,524.93025)"
       id="g4286">
      <path
         id="path4288"
         style="fill:#d0d1d3;fill-opacity:1;fill-rule:nonzero;stroke:none"
         d="m 0,0 c -0.045,-0.12 -0.068,-0.209 -0.058,-0.209 l -0.011,0.219 -0.853,17.4 -7.374,-0.06 1.714,-24.43 9.89,0.01 6.029,14.73 0,-14.76 10.076,0 L 31.299,17.77 23.193,17.65 15.306,0.2 15.239,0.04 15.236,0.22 14.984,17.58 6.916,17.52 0,0" />
    </g>
    <g
       transform="matrix(1.9966471,0,0,-1.9966471,499.52726,524.73059)"
       id="g4290">
      <path
         id="path4292"
         style="fill:#cbcdce;fill-opacity:1;fill-rule:nonzero;stroke:none"
         d="m 0,0 c -0.044,-0.12 -0.067,-0.21 -0.057,-0.21 l -0.011,0.22 -0.854,17.4 -7.374,-0.06 1.714,-24.43 9.89,0.01 6.03,14.73 0,-14.76 10.076,0 L 31.299,17.77 23.193,17.65 15.306,0.2 15.24,0.04 15.236,0.22 14.984,17.59 6.917,17.51 0,0" />
    </g>
    <g
       transform="matrix(1.9966471,0,0,-1.9966471,499.7449,524.51096)"
       id="g4294">
      <path
         id="path4296"
         style="fill:#c6c8c9;fill-opacity:1;fill-rule:nonzero;stroke:none"
         d="M 0,0 C -0.045,-0.13 -0.068,-0.22 -0.058,-0.22 L -0.069,0 l -0.853,17.4 -7.374,-0.06 1.713,-24.42 9.891,0 6.029,14.73 0,-14.76 10.077,0 L 31.299,17.77 23.193,17.64 15.306,0.19 15.239,0.03 15.236,0.21 14.984,17.581 6.917,17.51 0,0" />
    </g>
    <g
       transform="matrix(1.9966471,0,0,-1.9966471,499.96053,524.31129)"
       id="g4298">
      <path
         id="path4300"
         style="fill:#c0c3c4;fill-opacity:1;fill-rule:nonzero;stroke:none"
         d="m 0,0 c -0.045,-0.13 -0.067,-0.22 -0.058,-0.22 l -0.01,0.22 -0.854,17.4 -7.373,-0.06 1.713,-24.42 9.891,0 6.029,14.73 0,-14.76 10.076,0 L 31.299,17.77 23.193,17.64 15.306,0.19 15.24,0.03 15.236,0.21 14.984,17.58 6.917,17.51 0,0" />
    </g>
    <g
       transform="matrix(1.9966471,0,0,-1.9966471,500.17617,524.11163)"
       id="g4302">
      <path
         id="path4304"
         style="fill:#bbbebf;fill-opacity:1;fill-rule:nonzero;stroke:none"
         d="M 0,0 C -0.045,-0.13 -0.067,-0.22 -0.057,-0.22 L -0.068,0 l -0.854,17.4 -7.373,-0.05 1.713,-24.43 9.891,0 6.03,14.73 0,-14.76 10.075,0 L 31.3,17.77 23.194,17.64 15.307,0.19 15.241,0.03 15.237,0.21 14.985,17.58 6.917,17.51 0,0" />
    </g>
    <g
       transform="matrix(1.9966471,0,0,-1.9966471,500.39381,523.91196)"
       id="g4306">
      <path
         id="path4308"
         style="fill:#b6b9bb;fill-opacity:1;fill-rule:nonzero;stroke:none"
         d="M 0,0 C -0.045,-0.13 -0.068,-0.22 -0.057,-0.22 L -0.069,0 -0.922,17.401 -8.296,17.35 l 1.714,-24.43 9.89,0 6.03,14.74 0,-14.77 10.076,0 L 31.3,17.77 23.193,17.64 15.306,0.19 15.24,0.031 15.237,0.21 14.985,17.58 6.917,17.51 0,0" />
    </g>
    <g
       transform="matrix(1.9966471,0,0,-1.9966471,500.60944,523.7123)"
       id="g4310">
      <path
         id="path4312"
         style="fill:#b1b4b6;fill-opacity:1;fill-rule:nonzero;stroke:none"
         d="M 0,0 C -0.045,-0.13 -0.067,-0.21 -0.057,-0.21 L -0.068,0 l -0.853,17.4 -7.374,-0.05 1.713,-24.43 9.891,0 6.029,14.74 0,-14.77 L 19.415,-7.1 31.3,17.77 23.193,17.64 15.307,0.19 15.241,0.03 15.237,0.21 14.985,17.58 6.917,17.51 0,0" />
    </g>
    <g
       transform="matrix(1.9966471,0,0,-1.9966471,500.82708,523.51263)"
       id="g4314">
      <path
         id="path4316"
         style="fill:#acafb1;fill-opacity:1;fill-rule:nonzero;stroke:none"
         d="M 0,0 C -0.046,-0.13 -0.068,-0.21 -0.057,-0.21 L -0.069,0 l -0.853,17.4 -7.374,-0.05 1.713,-24.43 9.892,0 6.029,14.74 0,-14.77 L 19.415,-7.1 31.299,17.77 23.193,17.64 15.306,0.19 15.24,0.03 15.237,0.21 14.984,17.58 6.917,17.51 0,0" />
    </g>
    <g
       transform="matrix(1.9966471,0,0,-1.9966471,501.04272,523.31297)"
       id="g4318">
      <path
         id="path4320"
         style="fill:#a7aaac;fill-opacity:1;fill-rule:nonzero;stroke:none"
         d="M 0,0 C -0.045,-0.13 -0.067,-0.21 -0.057,-0.21 L -0.068,0 l -0.853,17.4 -7.374,-0.05 1.713,-24.43 9.891,0 6.03,14.74 0,-14.77 L 19.415,-7.1 31.3,17.77 23.194,17.64 15.307,0.2 15.241,0.03 15.237,0.21 14.985,17.58 6.917,17.51 0,0" />
    </g>
    <g
       transform="matrix(1.9966471,0,0,-1.9966471,501.26035,523.1133)"
       id="g4322">
      <path
         id="path4324"
         style="fill:#a2a5a7;fill-opacity:1;fill-rule:nonzero;stroke:none"
         d="M 0,0 C -0.046,-0.129 -0.068,-0.21 -0.057,-0.21 L -0.069,0 l -0.853,17.41 -7.374,-0.06 1.713,-24.43 9.891,0 6.03,14.74 0,-14.76 10.076,0 L 31.3,17.77 23.193,17.64 15.306,0.2 15.24,0.03 15.237,0.21 14.984,17.58 6.917,17.51 0,0" />
    </g>
    <g
       transform="matrix(1.9966471,0,0,-1.9966471,501.47599,522.91364)"
       id="g4326">
      <path
         id="path4328"
         style="fill:#9da0a2;fill-opacity:1;fill-rule:nonzero;stroke:none"
         d="m 0,0 c -0.046,-0.13 -0.068,-0.21 -0.056,-0.21 l -0.013,0.22 -0.852,17.4 -7.374,-0.06 1.713,-24.43 9.891,0 6.03,14.74 0,-14.759 10.076,0 L 31.3,17.771 23.194,17.64 15.307,0.2 15.241,0.04 15.238,0.21 14.985,17.58 6.917,17.51 0,0" />
    </g>
    <g
       transform="matrix(1.9966471,0,0,-1.9966471,501.69362,522.71397)"
       id="g4330">
      <path
         id="path4332"
         style="fill:#989a9d;fill-opacity:1;fill-rule:nonzero;stroke:none"
         d="m 0,0 c -0.047,-0.13 -0.068,-0.21 -0.057,-0.21 l -0.012,0.22 -0.853,17.4 -7.374,-0.06 1.713,-24.429 9.892,0 6.029,14.739 0,-14.76 10.077,0 L 31.3,17.77 23.193,17.65 15.306,0.2 15.24,0.04 15.237,0.21 14.984,17.58 6.917,17.51 0,0" />
    </g>
    <g
       transform="matrix(1.9966471,0,0,-1.9966471,423.2214,544.49739)"
       id="g4334">
      <path
         id="path4336"
         style="fill:#ffffff;fill-opacity:1;fill-rule:nonzero;stroke:none"
         d="M 0,0 -9.348,-3.78 1.471,29.2 11.735,34.33 0,0" />
    </g>
    <g
       transform="matrix(1.9966471,0,0,-1.9966471,423.2813,544.43749)"
       id="g4338">
      <path
         id="path4340"
         style="fill:#ffffff;fill-opacity:1;fill-rule:nonzero;stroke:none"
         d="M 0,0 -9.349,-3.78 1.47,29.2 11.734,34.33 0,0" />
    </g>
    <g
       transform="matrix(1.9966471,0,0,-1.9966471,423.3412,544.37759)"
       id="g4342">
      <path
         id="path4344"
         style="fill:#fefefe;fill-opacity:1;fill-rule:nonzero;stroke:none"
         d="M 0,0 -9.349,-3.78 1.47,29.2 11.734,34.33 0,0" />
    </g>
    <g
       transform="matrix(1.9966471,0,0,-1.9966471,423.4011,544.3177)"
       id="g4346">
      <path
         id="path4348"
         style="fill:#fdfdfd;fill-opacity:1;fill-rule:nonzero;stroke:none"
         d="M 0,0 -9.349,-3.78 1.47,29.2 11.734,34.33 0,0" />
    </g>
    <g
       transform="matrix(1.9966471,0,0,-1.9966471,423.459,544.2578)"
       id="g4350">
      <path
         id="path4352"
         style="fill:#fdfdfd;fill-opacity:1;fill-rule:nonzero;stroke:none"
         d="M 0,0 -9.348,-3.78 1.471,29.2 11.735,34.33 0,0" />
    </g>
    <g
       transform="matrix(1.9966471,0,0,-1.9966471,423.5189,544.1979)"
       id="g4354">
      <path
         id="path4356"
         style="fill:#fcfcfc;fill-opacity:1;fill-rule:nonzero;stroke:none"
         d="M 0,0 -9.349,-3.79 1.47,29.2 11.735,34.33 0,0" />
    </g>
    <g
       transform="matrix(1.9966471,0,0,-1.9966471,423.5788,544.138)"
       id="g4358">
      <path
         id="path4360"
         style="fill:#fbfbfb;fill-opacity:1;fill-rule:nonzero;stroke:none"
         d="M 0,0 -9.349,-3.78 1.47,29.2 11.734,34.33 0,0" />
    </g>
    <g
       transform="matrix(1.9966471,0,0,-1.9966471,423.6387,544.0781)"
       id="g4362">
      <path
         id="path4364"
         style="fill:#fafafa;fill-opacity:1;fill-rule:nonzero;stroke:none"
         d="M 0,0 -9.349,-3.79 1.47,29.2 11.735,34.33 0,0" />
    </g>
    <g
       transform="matrix(1.9966471,0,0,-1.9966471,423.6986,544.0182)"
       id="g4366">
      <path
         id="path4368"
         style="fill:#fafafa;fill-opacity:1;fill-rule:nonzero;stroke:none"
         d="M 0,0 -9.349,-3.79 1.47,29.2 11.734,34.33 0,0" />
    </g>
    <g
       transform="matrix(1.9966471,0,0,-1.9966471,423.7565,543.9583)"
       id="g4370">
      <path
         id="path4372"
         style="fill:#f9f9f9;fill-opacity:1;fill-rule:nonzero;stroke:none"
         d="M 0,0 -9.349,-3.79 1.47,29.2 11.735,34.32 0,0" />
    </g>
    <g
       transform="matrix(1.9966471,0,0,-1.9966471,423.8164,543.91837)"
       id="g4374">
      <path
         id="path4376"
         style="fill:#f8f8f8;fill-opacity:1;fill-rule:nonzero;stroke:none"
         d="M 0,0 -9.349,-3.78 1.47,29.21 11.735,34.33 0,0" />
    </g>
    <g
       transform="matrix(1.9966471,0,0,-1.9966471,423.8763,543.85847)"
       id="g4378">
      <path
         id="path4380"
         style="fill:#f8f8f8;fill-opacity:1;fill-rule:nonzero;stroke:none"
         d="M 0,0 -9.349,-3.78 1.47,29.21 11.734,34.33 0,0" />
    </g>
    <g
       transform="matrix(1.9966471,0,0,-1.9966471,423.9362,543.79857)"
       id="g4382">
      <path
         id="path4384"
         style="fill:#f7f7f7;fill-opacity:1;fill-rule:nonzero;stroke:none"
         d="M 0,0 -9.349,-3.78 1.47,29.21 11.734,34.33 0,0" />
    </g>
    <g
       transform="matrix(1.9966471,0,0,-1.9966471,423.9961,543.73867)"
       id="g4386">
      <path
         id="path4388"
         style="fill:#f6f6f6;fill-opacity:1;fill-rule:nonzero;stroke:none"
         d="M 0,0 -9.35,-3.78 1.47,29.21 11.734,34.33 0,0" />
    </g>
    <g
       transform="matrix(1.9966471,0,0,-1.9966471,424.054,543.67877)"
       id="g4390">
      <path
         id="path4392"
         style="fill:#f5f5f6;fill-opacity:1;fill-rule:nonzero;stroke:none"
         d="M 0,0 -9.349,-3.78 1.47,29.21 11.735,34.33 0,0" />
    </g>
    <g
       transform="matrix(1.9966471,0,0,-1.9966471,424.1139,543.61887)"
       id="g4394">
      <path
         id="path4396"
         style="fill:#f5f5f5;fill-opacity:1;fill-rule:nonzero;stroke:none"
         d="M 0,0 -9.349,-3.78 1.47,29.21 11.735,34.33 0,0" />
    </g>
    <g
       transform="matrix(1.9966471,0,0,-1.9966471,424.1738,543.55897)"
       id="g4398">
      <path
         id="path4400"
         style="fill:#f4f4f4;fill-opacity:1;fill-rule:nonzero;stroke:none"
         d="M 0,0 -9.349,-3.78 1.47,29.21 11.734,34.33 0,0" />
    </g>
    <g
       transform="matrix(1.9966471,0,0,-1.9966471,424.2337,543.49907)"
       id="g4402">
      <path
         id="path4404"
         style="fill:#f3f3f3;fill-opacity:1;fill-rule:nonzero;stroke:none"
         d="M 0,0 -9.349,-3.78 1.469,29.2 11.734,34.33 0,0" />
    </g>
    <g
       transform="matrix(1.9966471,0,0,-1.9966471,424.2916,543.43917)"
       id="g4406">
      <path
         id="path4408"
         style="fill:#f2f2f3;fill-opacity:1;fill-rule:nonzero;stroke:none"
         d="M 0,0 -9.349,-3.78 1.471,29.2 11.735,34.33 0,0" />
    </g>
    <g
       transform="matrix(1.9966471,0,0,-1.9966471,424.3515,543.37927)"
       id="g4410">
      <path
         id="path4412"
         style="fill:#f2f2f2;fill-opacity:1;fill-rule:nonzero;stroke:none"
         d="M 0,0 -9.349,-3.78 1.47,29.2 11.735,34.33 0,0" />
    </g>
    <g
       transform="matrix(1.9966471,0,0,-1.9966471,424.4114,543.3173)"
       id="g4414">
      <path
         id="path4416"
         style="fill:#f1f1f1;fill-opacity:1;fill-rule:nonzero;stroke:none"
         d="M 0,0 -9.349,-3.781 1.47,29.199 11.734,34.329 0,0" />
    </g>
    <g
       transform="matrix(1.9966471,0,0,-1.9966471,424.4713,543.25947)"
       id="g4418">
      <path
         id="path4420"
         style="fill:#f0f0f0;fill-opacity:1;fill-rule:nonzero;stroke:none"
         d="M 0,0 -9.349,-3.779 1.47,29.2 11.735,34.33 0,0" />
    </g>
    <g
       transform="matrix(1.9966471,0,0,-1.9966471,424.5312,543.19957)"
       id="g4422">
      <path
         id="path4424"
         style="fill:#eff0f0;fill-opacity:1;fill-rule:nonzero;stroke:none"
         d="M 0,0 -9.35,-3.78 1.469,29.2 11.734,34.33 0,0" />
    </g>
    <g
       transform="matrix(1.9966471,0,0,-1.9966471,424.5891,543.13967)"
       id="g4426">
      <path
         id="path4428"
         style="fill:#efefef;fill-opacity:1;fill-rule:nonzero;stroke:none"
         d="M 0,0 -9.349,-3.78 1.471,29.2 11.735,34.33 0,0" />
    </g>
    <g
       transform="matrix(1.9966471,0,0,-1.9966471,424.649,543.0777)"
       id="g4430">
      <path
         id="path4432"
         style="fill:#eeeeee;fill-opacity:1;fill-rule:nonzero;stroke:none"
         d="M 0,0 -9.349,-3.781 1.47,29.199 11.735,34.329 0,0" />
    </g>
    <g
       transform="matrix(1.9966471,0,0,-1.9966471,424.7089,543.01987)"
       id="g4434">
      <path
         id="path4436"
         style="fill:#ededee;fill-opacity:1;fill-rule:nonzero;stroke:none"
         d="M 0,0 -9.35,-3.779 1.47,29.2 11.734,34.33 0,0" />
    </g>
    <g
       transform="matrix(1.9966471,0,0,-1.9966471,424.7688,542.95998)"
       id="g4438">
      <path
         id="path4440"
         style="fill:#eceded;fill-opacity:1;fill-rule:nonzero;stroke:none"
         d="M 0,0 -9.35,-3.78 1.469,29.2 11.735,34.33 0,0" />
    </g>
    <g
       transform="matrix(1.9966471,0,0,-1.9966471,424.8287,542.90008)"
       id="g4442">
      <path
         id="path4444"
         style="fill:#ebecec;fill-opacity:1;fill-rule:nonzero;stroke:none"
         d="M 0,0 -9.35,-3.78 1.469,29.2 11.734,34.33 0,0" />
    </g>
    <g
       transform="matrix(1.9966471,0,0,-1.9966471,424.8866,542.8381)"
       id="g4446">
      <path
         id="path4448"
         style="fill:#ebebeb;fill-opacity:1;fill-rule:nonzero;stroke:none"
         d="m 0,0 -9.349,-3.781 10.82,32.98 10.264,5.13 L 0,0" />
    </g>
    <g
       transform="matrix(1.9966471,0,0,-1.9966471,424.9465,542.78028)"
       id="g4450">
      <path
         id="path4452"
         style="fill:#eaeaeb;fill-opacity:1;fill-rule:nonzero;stroke:none"
         d="M 0,0 -9.35,-3.779 1.47,29.2 11.735,34.33 0,0" />
    </g>
    <g
       transform="matrix(1.9966471,0,0,-1.9966471,425.0064,542.72038)"
       id="g4454">
      <path
         id="path4456"
         style="fill:#e9eaea;fill-opacity:1;fill-rule:nonzero;stroke:none"
         d="M 0,0 -9.35,-3.78 1.47,29.2 11.734,34.33 0,0" />
    </g>
    <g
       transform="matrix(1.9966471,0,0,-1.9966471,425.0663,542.66048)"
       id="g4458">
      <path
         id="path4460"
         style="fill:#e8e9e9;fill-opacity:1;fill-rule:nonzero;stroke:none"
         d="M 0,0 -9.349,-3.79 1.469,29.2 11.734,34.33 0,0" />
    </g>
    <g
       transform="matrix(1.9966471,0,0,-1.9966471,425.1262,542.60058)"
       id="g4462">
      <path
         id="path4464"
         style="fill:#e8e8e9;fill-opacity:1;fill-rule:nonzero;stroke:none"
         d="M 0,0 -9.35,-3.79 1.469,29.2 11.734,34.33 0,0" />
    </g>
    <g
       transform="matrix(1.9966471,0,0,-1.9966471,425.1841,542.56065)"
       id="g4466">
      <path
         id="path4468"
         style="fill:#e7e7e8;fill-opacity:1;fill-rule:nonzero;stroke:none"
         d="M 0,0 -9.349,-3.78 1.47,29.21 11.735,34.34 0,0" />
    </g>
    <g
       transform="matrix(1.9966471,0,0,-1.9966471,425.244,542.50075)"
       id="g4470">
      <path
         id="path4472"
         style="fill:#e6e7e7;fill-opacity:1;fill-rule:nonzero;stroke:none"
         d="M 0,0 -9.35,-3.78 1.47,29.21 11.734,34.33 0,0" />
    </g>
    <g
       transform="matrix(1.9966471,0,0,-1.9966471,425.3039,542.44085)"
       id="g4474">
      <path
         id="path4476"
         style="fill:#e5e6e6;fill-opacity:1;fill-rule:nonzero;stroke:none"
         d="M 0,0 -9.35,-3.78 1.47,29.21 11.735,34.33 0,0" />
    </g>
    <g
       transform="matrix(1.9966471,0,0,-1.9966471,425.3638,542.38095)"
       id="g4478">
      <path
         id="path4480"
         style="fill:#e4e5e6;fill-opacity:1;fill-rule:nonzero;stroke:none"
         d="M 0,0 -9.35,-3.78 1.469,29.21 11.734,34.33 0,0" />
    </g>
    <g
       transform="matrix(1.9966471,0,0,-1.9966471,425.4217,542.32105)"
       id="g4482">
      <path
         id="path4484"
         style="fill:#e4e4e5;fill-opacity:1;fill-rule:nonzero;stroke:none"
         d="M 0,0 -9.349,-3.78 1.47,29.21 11.735,34.33 0,0" />
    </g>
    <g
       transform="matrix(1.9966471,0,0,-1.9966471,425.4816,542.26115)"
       id="g4486">
      <path
         id="path4488"
         style="fill:#e3e4e4;fill-opacity:1;fill-rule:nonzero;stroke:none"
         d="M 0,0 -9.35,-3.78 1.47,29.21 11.735,34.33 0,0" />
    </g>
    <g
       transform="matrix(1.9966471,0,0,-1.9966471,425.5415,542.20125)"
       id="g4490">
      <path
         id="path4492"
         style="fill:#e2e3e3;fill-opacity:1;fill-rule:nonzero;stroke:none"
         d="M 0,0 -9.35,-3.78 1.47,29.21 11.734,34.33 0,0" />
    </g>
    <g
       transform="matrix(1.9966471,0,0,-1.9966471,425.6014,542.14135)"
       id="g4494">
      <path
         id="path4496"
         style="fill:#e1e2e3;fill-opacity:1;fill-rule:nonzero;stroke:none"
         d="M 0,0 -9.35,-3.78 1.469,29.21 11.735,34.33 0,0" />
    </g>
    <g
       transform="matrix(1.9966471,0,0,-1.9966471,425.6613,542.08145)"
       id="g4498">
      <path
         id="path4500"
         style="fill:#e0e1e2;fill-opacity:1;fill-rule:nonzero;stroke:none"
         d="M 0,0 -9.35,-3.78 1.469,29.2 11.734,34.33 0,0" />
    </g>
    <g
       transform="matrix(1.9966471,0,0,-1.9966471,425.7192,542.02155)"
       id="g4502">
      <path
         id="path4504"
         style="fill:#e0e0e1;fill-opacity:1;fill-rule:nonzero;stroke:none"
         d="M 0,0 -9.35,-3.78 1.47,29.21 11.735,34.33 0,0" />
    </g>
    <g
       transform="matrix(1.9966471,0,0,-1.9966471,425.7791,541.96165)"
       id="g4506">
      <path
         id="path4508"
         style="fill:#dfe0e1;fill-opacity:1;fill-rule:nonzero;stroke:none"
         d="M 0,0 -9.35,-3.78 1.47,29.2 11.735,34.33 0,0" />
    </g>
    <g
       transform="matrix(1.9966471,0,0,-1.9966471,425.839,541.90175)"
       id="g4510">
      <path
         id="path4512"
         style="fill:#dedfe0;fill-opacity:1;fill-rule:nonzero;stroke:none"
         d="M 0,0 -9.35,-3.78 1.469,29.2 11.735,34.33 0,0" />
    </g>
    <g
       transform="matrix(1.9966471,0,0,-1.9966471,425.8989,541.84185)"
       id="g4514">
      <path
         id="path4516"
         style="fill:#dddedf;fill-opacity:1;fill-rule:nonzero;stroke:none"
         d="M 0,0 -9.35,-3.78 1.469,29.2 11.735,34.33 0,0" />
    </g>
    <g
       transform="matrix(1.9966471,0,0,-1.9966471,425.9568,541.78195)"
       id="g4518">
      <path
         id="path4520"
         style="fill:#dcddde;fill-opacity:1;fill-rule:nonzero;stroke:none"
         d="M 0,0 -9.35,-3.78 1.47,29.2 11.735,34.33 0,0" />
    </g>
    <g
       transform="matrix(1.9966471,0,0,-1.9966471,426.0187,541.72205)"
       id="g4522">
      <path
         id="path4524"
         style="fill:#dcddde;fill-opacity:1;fill-rule:nonzero;stroke:none"
         d="M 0,0 -9.351,-3.78 1.469,29.201 11.734,34.33 0,0" />
    </g>
    <g
       transform="matrix(1.9966471,0,0,-1.9966471,426.0786,541.66215)"
       id="g4526">
      <path
         id="path4528"
         style="fill:#dbdcdd;fill-opacity:1;fill-rule:nonzero;stroke:none"
         d="M 0,0 -9.351,-3.78 1.468,29.2 11.734,34.33 0,0" />
    </g>
    <g
       transform="matrix(1.9966471,0,0,-1.9966471,426.1365,541.60226)"
       id="g4530">
      <path
         id="path4532"
         style="fill:#dadbdc;fill-opacity:1;fill-rule:nonzero;stroke:none"
         d="M 0,0 -9.35,-3.78 1.469,29.2 11.735,34.33 0,0" />
    </g>
    <g
       transform="matrix(1.9966471,0,0,-1.9966471,426.1964,541.54236)"
       id="g4534">
      <path
         id="path4536"
         style="fill:#d9dadb;fill-opacity:1;fill-rule:nonzero;stroke:none"
         d="M 0,0 -9.351,-3.78 1.469,29.2 11.734,34.33 0,0" />
    </g>
    <g
       transform="matrix(1.9966471,0,0,-1.9966471,426.2543,541.48246)"
       id="g4538">
      <path
         id="path4540"
         style="fill:#d8d9da;fill-opacity:1;fill-rule:nonzero;stroke:none"
         d="M 0,0 -9.35,-3.78 1.47,29.201 11.735,34.331 0,0" />
    </g>
    <g
       transform="matrix(1.9966471,0,0,-1.9966471,426.3142,541.42256)"
       id="g4542">
      <path
         id="path4544"
         style="fill:#d7d9da;fill-opacity:1;fill-rule:nonzero;stroke:none"
         d="M 0,0 -9.35,-3.78 1.469,29.2 11.735,34.33 0,0" />
    </g>
    <g
       transform="matrix(1.9966471,0,0,-1.9966471,426.3741,541.36266)"
       id="g4546">
      <path
         id="path4548"
         style="fill:#d7d8d9;fill-opacity:1;fill-rule:nonzero;stroke:none"
         d="M 0,0 -9.35,-3.78 1.469,29.2 11.734,34.33 0,0" />
    </g>
    <g
       transform="matrix(1.9966471,0,0,-1.9966471,426.434,541.30276)"
       id="g4550">
      <path
         id="path4552"
         style="fill:#d6d7d8;fill-opacity:1;fill-rule:nonzero;stroke:none"
         d="M 0,0 -9.35,-3.78 1.469,29.2 11.735,34.33 0,0" />
    </g>
    <g
       transform="matrix(1.9966471,0,0,-1.9966471,426.4939,541.26283)"
       id="g4554">
      <path
         id="path4556"
         style="fill:#d5d6d7;fill-opacity:1;fill-rule:nonzero;stroke:none"
         d="M 0,0 -9.351,-3.77 1.469,29.21 11.734,34.341 0,0" />
    </g>
    <g
       transform="matrix(1.9966471,0,0,-1.9966471,426.5538,541.20293)"
       id="g4558">
      <path
         id="path4560"
         style="fill:#d4d5d7;fill-opacity:1;fill-rule:nonzero;stroke:none"
         d="M 0,0 -9.351,-3.78 1.469,29.21 11.734,34.34 0,0" />
    </g>
    <g
       transform="matrix(1.9966471,0,0,-1.9966471,426.6137,541.14303)"
       id="g4562">
      <path
         id="path4564"
         style="fill:#d3d5d6;fill-opacity:1;fill-rule:nonzero;stroke:none"
         d="M 0,0 -9.351,-3.78 1.468,29.21 11.734,34.34 0,0" />
    </g>
    <g
       transform="matrix(1.9966471,0,0,-1.9966471,426.6716,541.08313)"
       id="g4566">
      <path
         id="path4568"
         style="fill:#d2d4d5;fill-opacity:1;fill-rule:nonzero;stroke:none"
         d="M 0,0 -9.351,-3.78 1.469,29.21 11.735,34.33 0,0" />
    </g>
    <g
       transform="matrix(1.9966471,0,0,-1.9966471,426.7315,541.02323)"
       id="g4570">
      <path
         id="path4572"
         style="fill:#d1d3d4;fill-opacity:1;fill-rule:nonzero;stroke:none"
         d="M 0,0 -9.351,-3.78 1.469,29.21 11.735,34.33 0,0" />
    </g>
    <g
       transform="matrix(1.9966471,0,0,-1.9966471,426.78941,540.96333)"
       id="g4574">
      <path
         id="path4576"
         style="fill:#d1d2d3;fill-opacity:1;fill-rule:nonzero;stroke:none"
         d="M 0,0 -9.35,-3.78 1.47,29.21 11.735,34.33 0,0" />
    </g>
    <g
       transform="matrix(1.9966471,0,0,-1.9966471,426.84931,540.90343)"
       id="g4578">
      <path
         id="path4580"
         style="fill:#d0d1d3;fill-opacity:1;fill-rule:nonzero;stroke:none"
         d="M 0,0 -9.35,-3.78 1.469,29.21 11.735,34.33 0,0" />
    </g>
    <g
       transform="matrix(1.9966471,0,0,-1.9966471,426.9092,540.84353)"
       id="g4582">
      <path
         id="path4584"
         style="fill:#cfd1d2;fill-opacity:1;fill-rule:nonzero;stroke:none"
         d="M 0,0 -9.351,-3.78 1.469,29.21 11.735,34.33 0,0" />
    </g>
    <g
       transform="matrix(1.9966471,0,0,-1.9966471,426.9691,540.78363)"
       id="g4586">
      <path
         id="path4588"
         style="fill:#ced0d1;fill-opacity:1;fill-rule:nonzero;stroke:none"
         d="M 0,0 -9.351,-3.78 1.469,29.21 11.735,34.33 0,0" />
    </g>
    <g
       transform="matrix(1.9966471,0,0,-1.9966471,427.029,540.72373)"
       id="g4590">
      <path
         id="path4592"
         style="fill:#cdcfd0;fill-opacity:1;fill-rule:nonzero;stroke:none"
         d="M 0,0 -9.351,-3.78 1.469,29.21 11.734,34.33 0,0" />
    </g>
    <g
       transform="matrix(1.9966471,0,0,-1.9966471,427.08691,540.66383)"
       id="g4594">
      <path
         id="path4596"
         style="fill:#cccecf;fill-opacity:1;fill-rule:nonzero;stroke:none"
         d="M 0,0 -9.35,-3.78 1.47,29.2 11.735,34.33 0,0" />
    </g>
    <g
       transform="matrix(1.9966471,0,0,-1.9966471,427.14681,540.60393)"
       id="g4598">
      <path
         id="path4600"
         style="fill:#cccdcf;fill-opacity:1;fill-rule:nonzero;stroke:none"
         d="M 0,0 -9.35,-3.78 1.469,29.2 11.735,34.33 0,0" />
    </g>
    <g
       transform="matrix(1.9966471,0,0,-1.9966471,427.20671,540.54403)"
       id="g4602">
      <path
         id="path4604"
         style="fill:#cbcdce;fill-opacity:1;fill-rule:nonzero;stroke:none"
         d="M 0,0 -9.351,-3.78 1.469,29.2 11.735,34.33 0,0" />
    </g>
    <g
       transform="matrix(1.9966471,0,0,-1.9966471,427.2666,540.48413)"
       id="g4606">
      <path
         id="path4608"
         style="fill:#cacccd;fill-opacity:1;fill-rule:nonzero;stroke:none"
         d="M 0,0 -9.351,-3.78 1.469,29.2 11.735,34.33 0,0" />
    </g>
    <g
       transform="matrix(1.9966471,0,0,-1.9966471,427.3265,540.42423)"
       id="g4610">
      <path
         id="path4612"
         style="fill:#c9cbcc;fill-opacity:1;fill-rule:nonzero;stroke:none"
         d="M 0,0 -9.351,-3.78 1.469,29.2 11.734,34.33 0,0" />
    </g>
    <g
       transform="matrix(1.9966471,0,0,-1.9966471,427.38441,540.36433)"
       id="g4614">
      <path
         id="path4616"
         style="fill:#c8cacb;fill-opacity:1;fill-rule:nonzero;stroke:none"
         d="M 0,0 -9.351,-3.78 1.47,29.2 11.735,34.33 0,0" />
    </g>
    <g
       transform="matrix(1.9966471,0,0,-1.9966471,427.4463,540.30443)"
       id="g4618">
      <path
         id="path4620"
         style="fill:#c7c9cb;fill-opacity:1;fill-rule:nonzero;stroke:none"
         d="M 0,0 -9.352,-3.78 1.468,29.2 11.734,34.33 0,0" />
    </g>
    <g
       transform="matrix(1.9966471,0,0,-1.9966471,427.50421,540.24454)"
       id="g4622">
      <path
         id="path4624"
         style="fill:#c6c8ca;fill-opacity:1;fill-rule:nonzero;stroke:none"
         d="M 0,0 -9.351,-3.78 1.469,29.2 11.735,34.33 0,0" />
    </g>
    <g
       transform="matrix(1.9966471,0,0,-1.9966471,427.56411,540.18464)"
       id="g4626">
      <path
         id="path4628"
         style="fill:#c6c8c9;fill-opacity:1;fill-rule:nonzero;stroke:none"
         d="M 0,0 -9.351,-3.78 1.469,29.2 11.735,34.33 0,0" />
    </g>
    <g
       transform="matrix(1.9966471,0,0,-1.9966471,427.62201,540.12474)"
       id="g4630">
      <path
         id="path4632"
         style="fill:#c5c7c8;fill-opacity:1;fill-rule:nonzero;stroke:none"
         d="M 0,0 -9.351,-3.78 1.47,29.2 11.735,34.33 0,0" />
    </g>
    <g
       transform="matrix(1.9966471,0,0,-1.9966471,427.6839,540.06484)"
       id="g4634">
      <path
         id="path4636"
         style="fill:#c4c6c7;fill-opacity:1;fill-rule:nonzero;stroke:none"
         d="M 0,0 -9.352,-3.78 1.468,29.2 11.734,34.33 0,0" />
    </g>
    <g
       transform="matrix(1.9966471,0,0,-1.9966471,427.74181,540.00494)"
       id="g4638">
      <path
         id="path4640"
         style="fill:#c3c5c7;fill-opacity:1;fill-rule:nonzero;stroke:none"
         d="M 0,0 -9.351,-3.78 1.469,29.2 11.735,34.33 0,0" />
    </g>
    <g
       transform="matrix(1.9966471,0,0,-1.9966471,427.80171,539.94504)"
       id="g4642">
      <path
         id="path4644"
         style="fill:#c2c4c6;fill-opacity:1;fill-rule:nonzero;stroke:none"
         d="M 0,0 -9.351,-3.78 1.469,29.2 11.735,34.33 0,0" />
    </g>
    <g
       transform="matrix(1.9966471,0,0,-1.9966471,427.86161,539.88514)"
       id="g4646">
      <path
         id="path4648"
         style="fill:#c1c3c5;fill-opacity:1;fill-rule:nonzero;stroke:none"
         d="M 0,0 -9.352,-3.78 1.469,29.2 11.734,34.33 0,0" />
    </g>
    <g
       transform="matrix(1.9966471,0,0,-1.9966471,427.9215,539.84313)"
       id="g4650">
      <path
         id="path4652"
         style="fill:#c0c3c4;fill-opacity:1;fill-rule:nonzero;stroke:none"
         d="M 0,0 -9.352,-3.771 1.469,29.209 11.734,34.339 0,0" />
    </g>
    <g
       transform="matrix(1.9966471,0,0,-1.9966471,427.9814,539.78531)"
       id="g4654">
      <path
         id="path4656"
         style="fill:#c0c2c4;fill-opacity:1;fill-rule:nonzero;stroke:none"
         d="M 0,0 -9.352,-3.779 1.468,29.21 11.734,34.34 0,0" />
    </g>
    <g
       transform="matrix(1.9966471,0,0,-1.9966471,428.03931,539.72541)"
       id="g4658">
      <path
         id="path4660"
         style="fill:#bfc1c3;fill-opacity:1;fill-rule:nonzero;stroke:none"
         d="M 0,0 -9.351,-3.78 1.469,29.21 11.735,34.34 0,0" />
    </g>
    <g
       transform="matrix(1.9966471,0,0,-1.9966471,428.09921,539.66551)"
       id="g4662">
      <path
         id="path4664"
         style="fill:#bec0c2;fill-opacity:1;fill-rule:nonzero;stroke:none"
         d="M 0,0 -9.351,-3.78 1.468,29.21 11.735,34.33 0,0" />
    </g>
    <g
       transform="matrix(1.9966471,0,0,-1.9966471,428.15711,539.60561)"
       id="g4666">
      <path
         id="path4668"
         style="fill:#bdbfc1;fill-opacity:1;fill-rule:nonzero;stroke:none"
         d="M 0,0 -9.351,-3.78 1.47,29.21 11.735,34.33 0,0" />
    </g>
    <g
       transform="matrix(1.9966471,0,0,-1.9966471,428.21901,539.54571)"
       id="g4670">
      <path
         id="path4672"
         style="fill:#bcbec0;fill-opacity:1;fill-rule:nonzero;stroke:none"
         d="M 0,0 -9.352,-3.78 1.469,29.21 11.734,34.33 0,0" />
    </g>
    <g
       transform="matrix(1.9966471,0,0,-1.9966471,428.2789,539.48581)"
       id="g4674">
      <path
         id="path4676"
         style="fill:#bbbebf;fill-opacity:1;fill-rule:nonzero;stroke:none"
         d="M 0,0 -9.352,-3.78 1.468,29.21 11.734,34.33 0,0" />
    </g>
    <g
       transform="matrix(1.9966471,0,0,-1.9966471,428.33681,539.42591)"
       id="g4678">
      <path
         id="path4680"
         style="fill:#babdbf;fill-opacity:1;fill-rule:nonzero;stroke:none"
         d="M 0,0 -9.351,-3.78 1.469,29.21 11.735,34.33 0,0" />
    </g>
    <g
       transform="matrix(1.9966471,0,0,-1.9966471,428.39671,539.36601)"
       id="g4682">
      <path
         id="path4684"
         style="fill:#babcbe;fill-opacity:1;fill-rule:nonzero;stroke:none"
         d="M 0,0 -9.351,-3.78 1.468,29.21 11.734,34.33 0,0" />
    </g>
    <g
       transform="matrix(1.9966471,0,0,-1.9966471,428.45661,539.30611)"
       id="g4686">
      <path
         id="path4688"
         style="fill:#b9bbbd;fill-opacity:1;fill-rule:nonzero;stroke:none"
         d="M 0,0 -9.352,-3.78 1.468,29.21 11.735,34.33 0,0" />
    </g>
    <g
       transform="matrix(1.9966471,0,0,-1.9966471,428.51651,539.24621)"
       id="g4690">
      <path
         id="path4692"
         style="fill:#b8babc;fill-opacity:1;fill-rule:nonzero;stroke:none"
         d="M 0,0 -9.352,-3.78 1.468,29.2 11.734,34.33 0,0" />
    </g>
    <g
       transform="matrix(1.9966471,0,0,-1.9966471,428.57441,539.18631)"
       id="g4694">
      <path
         id="path4696"
         style="fill:#b7b9bb;fill-opacity:1;fill-rule:nonzero;stroke:none"
         d="M 0,0 -9.352,-3.78 1.469,29.2 11.735,34.33 0,0" />
    </g>
    <g
       transform="matrix(1.9966471,0,0,-1.9966471,428.63431,539.12641)"
       id="g4698">
      <path
         id="path4700"
         style="fill:#b6b9bb;fill-opacity:1;fill-rule:nonzero;stroke:none"
         d="M 0,0 -9.351,-3.78 1.469,29.2 11.735,34.33 0,0" />
    </g>
    <g
       transform="matrix(1.9966471,0,0,-1.9966471,428.69421,539.06651)"
       id="g4702">
      <path
         id="path4704"
         style="fill:#b5b8ba;fill-opacity:1;fill-rule:nonzero;stroke:none"
         d="M 0,0 -9.352,-3.78 1.468,29.2 11.735,34.33 0,0" />
    </g>
    <g
       transform="matrix(1.9966471,0,0,-1.9966471,428.75411,539.00661)"
       id="g4706">
      <path
         id="path4708"
         style="fill:#b4b7b9;fill-opacity:1;fill-rule:nonzero;stroke:none"
         d="M 0,0 -9.352,-3.78 1.468,29.2 11.734,34.33 0,0" />
    </g>
    <g
       transform="matrix(1.9966471,0,0,-1.9966471,428.81401,538.94671)"
       id="g4710">
      <path
         id="path4712"
         style="fill:#b4b6b8;fill-opacity:1;fill-rule:nonzero;stroke:none"
         d="M 0,0 -9.352,-3.78 1.468,29.2 11.734,34.33 0,0" />
    </g>
    <g
       transform="matrix(1.9966471,0,0,-1.9966471,428.87191,538.88682)"
       id="g4714">
      <path
         id="path4716"
         style="fill:#b3b5b7;fill-opacity:1;fill-rule:nonzero;stroke:none"
         d="M 0,0 -9.352,-3.78 1.469,29.2 11.735,34.33 0,0" />
    </g>
    <g
       transform="matrix(1.9966471,0,0,-1.9966471,428.93181,538.82484)"
       id="g4718">
      <path
         id="path4720"
         style="fill:#b2b4b7;fill-opacity:1;fill-rule:nonzero;stroke:none"
         d="m 0,0 -9.352,-3.781 10.82,32.98 10.267,5.13 L 0,0" />
    </g>
    <g
       transform="matrix(1.9966471,0,0,-1.9966471,428.99171,538.76702)"
       id="g4722">
      <path
         id="path4724"
         style="fill:#b1b4b6;fill-opacity:1;fill-rule:nonzero;stroke:none"
         d="M 0,0 -9.352,-3.779 1.468,29.2 11.734,34.33 0,0" />
    </g>
    <g
       transform="matrix(1.9966471,0,0,-1.9966471,429.05161,538.70712)"
       id="g4726">
      <path
         id="path4728"
         style="fill:#b0b3b5;fill-opacity:1;fill-rule:nonzero;stroke:none"
         d="M 0,0 -9.352,-3.78 1.468,29.2 11.735,34.33 0,0" />
    </g>
    <g
       transform="matrix(1.9966471,0,0,-1.9966471,429.11151,538.64722)"
       id="g4730">
      <path
         id="path4732"
         style="fill:#afb2b4;fill-opacity:1;fill-rule:nonzero;stroke:none"
         d="M 0,0 -9.353,-3.78 1.468,29.2 11.734,34.33 0,0" />
    </g>
    <g
       transform="matrix(1.9966471,0,0,-1.9966471,429.16941,538.58524)"
       id="g4734">
      <path
         id="path4736"
         style="fill:#afb1b3;fill-opacity:1;fill-rule:nonzero;stroke:none"
         d="M 0,0 -9.352,-3.781 1.469,29.199 11.735,34.329 0,0" />
    </g>
    <g
       transform="matrix(1.9966471,0,0,-1.9966471,429.22931,538.52742)"
       id="g4738">
      <path
         id="path4740"
         style="fill:#aeb0b3;fill-opacity:1;fill-rule:nonzero;stroke:none"
         d="M 0,0 -9.352,-3.779 1.468,29.2 11.734,34.33 0,0" />
    </g>
    <g
       transform="matrix(1.9966471,0,0,-1.9966471,429.28921,538.46752)"
       id="g4742">
      <path
         id="path4744"
         style="fill:#adb0b2;fill-opacity:1;fill-rule:nonzero;stroke:none"
         d="M 0,0 -9.352,-3.78 1.468,29.2 11.735,34.33 0,0" />
    </g>
    <g
       transform="matrix(1.9966471,0,0,-1.9966471,429.34911,538.42759)"
       id="g4746">
      <path
         id="path4748"
         style="fill:#acafb1;fill-opacity:1;fill-rule:nonzero;stroke:none"
         d="M 0,0 -9.353,-3.77 1.468,29.21 11.735,34.34 0,0" />
    </g>
    <g
       transform="matrix(1.9966471,0,0,-1.9966471,429.40701,538.36769)"
       id="g4750">
      <path
         id="path4752"
         style="fill:#abaeb0;fill-opacity:1;fill-rule:nonzero;stroke:none"
         d="M 0,0 -9.352,-3.78 1.469,29.21 11.735,34.34 0,0" />
    </g>
    <g
       transform="matrix(1.9966471,0,0,-1.9966471,429.46691,538.30779)"
       id="g4754">
      <path
         id="path4756"
         style="fill:#aaadaf;fill-opacity:1;fill-rule:nonzero;stroke:none"
         d="M 0,0 -9.352,-3.78 1.469,29.21 11.735,34.34 0,0" />
    </g>
    <g
       transform="matrix(1.9966471,0,0,-1.9966471,429.52681,538.24789)"
       id="g4758">
      <path
         id="path4760"
         style="fill:#aaacaf;fill-opacity:1;fill-rule:nonzero;stroke:none"
         d="M 0,0 -9.352,-3.78 1.468,29.21 11.735,34.34 0,0" />
    </g>
    <g
       transform="matrix(1.9966471,0,0,-1.9966471,429.58671,538.18799)"
       id="g4762">
      <path
         id="path4764"
         style="fill:#a9abae;fill-opacity:1;fill-rule:nonzero;stroke:none"
         d="M 0,0 -9.353,-3.78 1.468,29.21 11.735,34.33 0,0" />
    </g>
    <g
       transform="matrix(1.9966471,0,0,-1.9966471,429.64661,538.12809)"
       id="g4766">
      <path
         id="path4768"
         style="fill:#a8abad;fill-opacity:1;fill-rule:nonzero;stroke:none"
         d="M 0,0 -9.353,-3.78 1.467,29.21 11.734,34.33 0,0" />
    </g>
    <g
       transform="matrix(1.9966471,0,0,-1.9966471,429.70451,538.06819)"
       id="g4770">
      <path
         id="path4772"
         style="fill:#a7aaac;fill-opacity:1;fill-rule:nonzero;stroke:none"
         d="M 0,0 -9.352,-3.78 1.469,29.21 11.735,34.33 0,0" />
    </g>
    <g
       transform="matrix(1.9966471,0,0,-1.9966471,429.76441,538.00829)"
       id="g4774">
      <path
         id="path4776"
         style="fill:#a6a9ab;fill-opacity:1;fill-rule:nonzero;stroke:none"
         d="M 0,0 -9.352,-3.78 1.468,29.21 11.735,34.33 0,0" />
    </g>
    <g
       transform="matrix(1.9966471,0,0,-1.9966471,429.82431,537.94839)"
       id="g4778">
      <path
         id="path4780"
         style="fill:#a5a8aa;fill-opacity:1;fill-rule:nonzero;stroke:none"
         d="M 0,0 -9.353,-3.78 1.468,29.21 11.735,34.33 0,0" />
    </g>
    <g
       transform="matrix(1.9966471,0,0,-1.9966471,429.88421,537.88849)"
       id="g4782">
      <path
         id="path4784"
         style="fill:#a5a7aa;fill-opacity:1;fill-rule:nonzero;stroke:none"
         d="M 0,0 -9.353,-3.78 1.468,29.21 11.735,34.33 0,0" />
    </g>
    <g
       transform="matrix(1.9966471,0,0,-1.9966471,429.94411,537.82859)"
       id="g4786">
      <path
         id="path4788"
         style="fill:#a4a7a9;fill-opacity:1;fill-rule:nonzero;stroke:none"
         d="M 0,0 -9.353,-3.78 1.468,29.21 11.734,34.33 0,0" />
    </g>
    <g
       transform="matrix(1.9966471,0,0,-1.9966471,430.00201,537.76869)"
       id="g4790">
      <path
         id="path4792"
         style="fill:#a3a6a8;fill-opacity:1;fill-rule:nonzero;stroke:none"
         d="M 0,0 -9.352,-3.78 1.468,29.2 11.735,34.33 0,0" />
    </g>
    <g
       transform="matrix(1.9966471,0,0,-1.9966471,430.06191,537.70879)"
       id="g4794">
      <path
         id="path4796"
         style="fill:#a2a5a7;fill-opacity:1;fill-rule:nonzero;stroke:none"
         d="M 0,0 -9.352,-3.78 1.468,29.2 11.735,34.33 0,0" />
    </g>
    <g
       transform="matrix(1.9966471,0,0,-1.9966471,430.12181,537.64889)"
       id="g4798">
      <path
         id="path4800"
         style="fill:#a1a4a6;fill-opacity:1;fill-rule:nonzero;stroke:none"
         d="M 0,0 -9.353,-3.78 1.468,29.2 11.735,34.33 0,0" />
    </g>
    <g
       transform="matrix(1.9966471,0,0,-1.9966471,430.18171,537.58899)"
       id="g4802">
      <path
         id="path4804"
         style="fill:#a0a3a6;fill-opacity:1;fill-rule:nonzero;stroke:none"
         d="M 0,0 -9.353,-3.78 1.467,29.2 11.735,34.33 0,0" />
    </g>
    <g
       transform="matrix(1.9966471,0,0,-1.9966471,430.23961,537.5291)"
       id="g4806">
      <path
         id="path4808"
         style="fill:#a0a3a5;fill-opacity:1;fill-rule:nonzero;stroke:none"
         d="M 0,0 -9.352,-3.78 1.468,29.2 11.735,34.33 0,0" />
    </g>
    <g
       transform="matrix(1.9966471,0,0,-1.9966471,430.29951,537.4692)"
       id="g4810">
      <path
         id="path4812"
         style="fill:#9fa2a4;fill-opacity:1;fill-rule:nonzero;stroke:none"
         d="M 0,0 -9.352,-3.78 1.468,29.2 11.735,34.33 0,0" />
    </g>
    <g
       transform="matrix(1.9966471,0,0,-1.9966471,430.35941,537.4093)"
       id="g4814">
      <path
         id="path4816"
         style="fill:#9ea1a3;fill-opacity:1;fill-rule:nonzero;stroke:none"
         d="M 0,0 -9.353,-3.78 1.468,29.2 11.735,34.33 0,0" />
    </g>
    <g
       transform="matrix(1.9966471,0,0,-1.9966471,430.41931,537.3494)"
       id="g4818">
      <path
         id="path4820"
         style="fill:#9da0a2;fill-opacity:1;fill-rule:nonzero;stroke:none"
         d="M 0,0 -9.353,-3.78 1.468,29.2 11.735,34.33 0,0" />
    </g>
    <g
       transform="matrix(1.9966471,0,0,-1.9966471,430.47921,537.2895)"
       id="g4822">
      <path
         id="path4824"
         style="fill:#9c9fa2;fill-opacity:1;fill-rule:nonzero;stroke:none"
         d="M 0,0 -9.353,-3.78 1.467,29.2 11.734,34.33 0,0" />
    </g>
    <g
       transform="matrix(1.9966471,0,0,-1.9966471,430.53711,537.2296)"
       id="g4826">
      <path
         id="path4828"
         style="fill:#9c9ea1;fill-opacity:1;fill-rule:nonzero;stroke:none"
         d="M 0,0 -9.353,-3.78 1.468,29.201 11.735,34.33 0,0" />
    </g>
    <g
       transform="matrix(1.9966471,0,0,-1.9966471,430.59701,537.1697)"
       id="g4830">
      <path
         id="path4832"
         style="fill:#9b9ea0;fill-opacity:1;fill-rule:nonzero;stroke:none"
         d="M 0,0 -9.353,-3.78 1.468,29.2 11.735,34.33 0,0" />
    </g>
    <g
       transform="matrix(1.9966471,0,0,-1.9966471,430.65691,537.1098)"
       id="g4834">
      <path
         id="path4836"
         style="fill:#9a9d9f;fill-opacity:1;fill-rule:nonzero;stroke:none"
         d="M 0,0 -9.353,-3.78 1.468,29.2 11.735,34.33 0,0" />
    </g>
    <g
       transform="matrix(1.9966471,0,0,-1.9966471,430.71681,537.06987)"
       id="g4838">
      <path
         id="path4840"
         style="fill:#999c9f;fill-opacity:1;fill-rule:nonzero;stroke:none"
         d="M 0,0 -9.353,-3.77 1.468,29.21 11.735,34.34 0,0" />
    </g>
    <g
       transform="matrix(1.9966471,0,0,-1.9966471,430.77671,537.00997)"
       id="g4842">
      <path
         id="path4844"
         style="fill:#989b9e;fill-opacity:1;fill-rule:nonzero;stroke:none"
         d="M 0,0 -9.353,-3.77 1.467,29.211 11.734,34.341 0,0" />
    </g>
    <g
       transform="matrix(1.9966471,0,0,-1.9966471,430.83461,536.95007)"
       id="g4846">
      <path
         id="path4848"
         style="fill:#989a9d;fill-opacity:1;fill-rule:nonzero;stroke:none"
         d="M 0,0 -9.353,-3.78 1.468,29.21 11.735,34.34 0,0" />
    </g>
    <g
       transform="matrix(1.9966471,0,0,-1.9966471,585.11953,480.12549)"
       id="g4850">
      <path
         id="path4852"
         style="fill:#ffffff;fill-opacity:1;fill-rule:nonzero;stroke:none"
         d="M 0,0 0.002,0 C -6.761,3.83 -16.368,6.67 -27.09,6.75 -52.862,6.92 -67.496,-5.88 -72.733,-14.909 l 8.657,0.439 c 8.158,10.691 24.972,17.89 43.122,17.89 9.135,0 15.032,-1.24 20.866,-3.61 L -0.045,-0.2 0.059,-0.09 0,0" />
    </g>
    <g
       transform="matrix(1.9966471,0,0,-1.9966471,585.18342,479.98572)"
       id="g4854">
      <path
         id="path4856"
         style="fill:#fbfbfb;fill-opacity:1;fill-rule:nonzero;stroke:none"
         d="M 0,0 0.001,0 C -6.762,3.83 -16.368,6.67 -27.09,6.75 -52.862,6.92 -67.496,-5.88 -72.733,-14.91 l 8.656,0.441 c 8.159,10.689 24.973,17.889 43.123,17.889 9.135,0 15.032,-1.24 20.866,-3.62 l 0,0.01 0.043,-0.01 0.103,0.101 L 0,0" />
    </g>
    <g
       transform="matrix(1.9966471,0,0,-1.9966471,585.24532,479.84596)"
       id="g4858">
      <path
         id="path4860"
         style="fill:#f7f7f7;fill-opacity:1;fill-rule:nonzero;stroke:none"
         d="M 0,0 0.002,0 C -6.761,3.83 -16.367,6.67 -27.089,6.75 -52.861,6.92 -67.495,-5.88 -72.732,-14.91 l 8.656,0.44 c 8.158,10.68 24.972,17.89 43.123,17.89 9.134,0 15.031,-1.24 20.866,-3.61 L -0.045,-0.2 0.059,-0.1 0,0" />
    </g>
    <g
       transform="matrix(1.9966471,0,0,-1.9966471,585.30921,479.70619)"
       id="g4862">
      <path
         id="path4864"
         style="fill:#f2f2f3;fill-opacity:1;fill-rule:nonzero;stroke:none"
         d="m 0,0 0.002,0 c -6.763,3.83 -16.37,6.67 -27.091,6.75 -25.773,0.17 -40.406,-12.63 -45.643,-21.66 l 8.656,0.44 c 8.158,10.68 24.972,17.89 43.122,17.89 9.135,0 15.032,-1.24 20.867,-3.62 l 0,0.01 0.042,-0.01 0.104,0.1 L 0,0" />
    </g>
    <g
       transform="matrix(1.9966471,0,0,-1.9966471,585.37311,479.56643)"
       id="g4866">
      <path
         id="path4868"
         style="fill:#eeeeee;fill-opacity:1;fill-rule:nonzero;stroke:none"
         d="M 0,0 0.001,0 C -6.761,3.83 -16.368,6.67 -27.09,6.75 -52.862,6.92 -67.495,-5.88 -72.733,-14.91 l 8.657,0.44 c 8.158,10.68 24.972,17.89 43.122,17.89 9.134,0 15.032,-1.24 20.866,-3.62 l 0,0.01 0.042,-0.01 0.105,0.1 L 0,0" />
    </g>
    <g
       transform="matrix(1.9966471,0,0,-1.9966471,585.437,479.42666)"
       id="g4870">
      <path
         id="path4872"
         style="fill:#e9eaea;fill-opacity:1;fill-rule:nonzero;stroke:none"
         d="M 0,0 0.001,0 C -6.762,3.83 -16.368,6.67 -27.09,6.74 -52.863,6.92 -67.496,-5.88 -72.733,-14.91 l 8.656,0.44 c 8.158,10.68 24.972,17.89 43.123,17.89 9.134,0 15.031,-1.24 20.866,-3.62 l 0,0.01 0.042,-0.01 0.105,0.1 L 0,0" />
    </g>
    <g
       transform="matrix(1.9966471,0,0,-1.9966471,585.49889,479.2869)"
       id="g4874">
      <path
         id="path4876"
         style="fill:#e4e5e6;fill-opacity:1;fill-rule:nonzero;stroke:none"
         d="M 0,0 0.002,0 C -6.761,3.83 -16.367,6.67 -27.09,6.74 -52.862,6.92 -67.495,-5.88 -72.732,-14.91 l 8.656,0.44 c 8.158,10.68 24.972,17.89 43.123,17.89 9.133,0 15.031,-1.24 20.866,-3.62 l 0.041,0 0.105,0.1 L 0,0" />
    </g>
    <g
       transform="matrix(1.9966471,0,0,-1.9966471,585.56279,479.14713)"
       id="g4878">
      <path
         id="path4880"
         style="fill:#dfe0e1;fill-opacity:1;fill-rule:nonzero;stroke:none"
         d="M 0,0 0.001,0 C -6.761,3.83 -16.368,6.67 -27.09,6.74 -52.862,6.92 -67.495,-5.88 -72.733,-14.91 l 8.657,0.44 c 8.157,10.68 24.972,17.89 43.122,17.89 9.134,0 15.032,-1.24 20.867,-3.62 l 0.041,0 0.105,0.1 L 0,0" />
    </g>
    <g
       transform="matrix(1.9966471,0,0,-1.9966471,585.62668,479.00737)"
       id="g4882">
      <path
         id="path4884"
         style="fill:#dadbdc;fill-opacity:1;fill-rule:nonzero;stroke:none"
         d="M 0,0 0.001,0 C -6.762,3.83 -16.368,6.67 -27.09,6.74 -52.863,6.92 -67.495,-5.88 -72.733,-14.91 l 8.657,0.44 c 8.156,10.68 24.971,17.89 43.122,17.89 9.133,0 15.031,-1.24 20.866,-3.62 l 0.041,0 0.106,0.1 L 0,0" />
    </g>
    <g
       transform="matrix(1.9966471,0,0,-1.9966471,585.68858,478.8676)"
       id="g4886">
      <path
         id="path4888"
         style="fill:#d5d6d7;fill-opacity:1;fill-rule:nonzero;stroke:none"
         d="M 0,0 0.002,0 C -6.761,3.83 -16.367,6.67 -27.089,6.74 -52.862,6.92 -67.494,-5.88 -72.732,-14.909 l 8.656,0.439 c 8.157,10.68 24.972,17.89 43.123,17.89 9.133,0 15.032,-1.24 20.866,-3.62 l 0.041,0 0.105,0.1 L 0,0" />
    </g>
    <g
       transform="matrix(1.9966471,0,0,-1.9966471,585.75247,478.72784)"
       id="g4890">
      <path
         id="path4892"
         style="fill:#d0d1d3;fill-opacity:1;fill-rule:nonzero;stroke:none"
         d="M 0,0 0.001,0 C -6.761,3.83 -16.367,6.67 -27.09,6.74 -52.863,6.92 -67.494,-5.88 -72.733,-14.91 l 8.657,0.44 c 8.157,10.68 24.972,17.89 43.122,17.89 9.133,0 15.032,-1.25 20.867,-3.62 l 0.041,0 0.105,0.101 L 0,0" />
    </g>
    <g
       transform="matrix(1.9966471,0,0,-1.9966471,585.81436,478.58807)"
       id="g4894">
      <path
         id="path4896"
         style="fill:#cbcdce;fill-opacity:1;fill-rule:nonzero;stroke:none"
         d="M 0,0 0.002,0 C -6.76,3.83 -16.367,6.67 -27.089,6.74 -52.862,6.92 -67.493,-5.88 -72.732,-14.91 l 8.657,0.44 c 8.156,10.68 24.971,17.89 43.122,17.89 9.133,0 15.032,-1.24 20.867,-3.62 l 0.041,0 L 0.06,-0.1 0,0" />
    </g>
    <g
       transform="matrix(1.9966471,0,0,-1.9966471,585.87826,478.46827)"
       id="g4898">
      <path
         id="path4900"
         style="fill:#c6c8c9;fill-opacity:1;fill-rule:nonzero;stroke:none"
         d="M 0,0 0.002,0.01 C -6.761,3.84 -16.367,6.68 -27.089,6.75 -52.863,6.93 -67.493,-5.87 -72.732,-14.9 l 8.656,0.44 c 8.157,10.68 24.972,17.89 43.123,17.89 9.132,0 15.031,-1.25 20.867,-3.62 l 0.04,0 0.105,0.1 L 0,0" />
    </g>
    <g
       transform="matrix(1.9966471,0,0,-1.9966471,585.94215,478.32851)"
       id="g4902">
      <path
         id="path4904"
         style="fill:#c0c3c4;fill-opacity:1;fill-rule:nonzero;stroke:none"
         d="M 0,0 0.001,0.01 C -6.761,3.84 -16.367,6.68 -27.089,6.75 -52.863,6.93 -67.494,-5.87 -72.733,-14.9 l 8.657,0.44 c 8.156,10.68 24.971,17.89 43.122,17.89 9.133,0 15.032,-1.25 20.867,-3.62 l 0.041,0 0.105,0.1 L 0,0" />
    </g>
    <g
       transform="matrix(1.9966471,0,0,-1.9966471,586.00405,478.18874)"
       id="g4906">
      <path
         id="path4908"
         style="fill:#bbbebf;fill-opacity:1;fill-rule:nonzero;stroke:none"
         d="M 0,0 0.002,0 C -6.761,3.84 -16.367,6.67 -27.089,6.75 -52.863,6.93 -67.493,-5.87 -72.732,-14.91 l 8.657,0.45 c 8.156,10.68 24.971,17.89 43.122,17.89 9.132,0 15.032,-1.25 20.867,-3.62 L -0.046,-0.2 0.06,-0.09 0,0" />
    </g>
    <g
       transform="matrix(1.9966471,0,0,-1.9966471,586.06794,478.04898)"
       id="g4910">
      <path
         id="path4912"
         style="fill:#b6b9bb;fill-opacity:1;fill-rule:nonzero;stroke:none"
         d="m 0,0 0.001,0 c -6.762,3.84 -16.368,6.67 -27.09,6.75 -25.774,0.18 -40.404,-12.62 -45.643,-21.66 l 8.657,0.45 c 8.155,10.68 24.971,17.891 43.122,17.891 9.132,0 15.032,-1.251 20.867,-3.621 L -0.046,-0.2 0.059,-0.09 0,0" />
    </g>
    <g
       transform="matrix(1.9966471,0,0,-1.9966471,586.13183,477.90921)"
       id="g4914">
      <path
         id="path4916"
         style="fill:#b1b4b6;fill-opacity:1;fill-rule:nonzero;stroke:none"
         d="M 0,0 0.001,0 C -6.761,3.84 -16.367,6.67 -27.09,6.75 -52.863,6.93 -67.493,-5.87 -72.733,-14.91 l 8.657,0.45 c 8.156,10.68 24.972,17.89 43.123,17.89 9.132,0 15.031,-1.25 20.867,-3.62 L -0.047,-0.2 0.059,-0.09 0,0" />
    </g>
    <g
       transform="matrix(1.9966471,0,0,-1.9966471,586.19373,477.76945)"
       id="g4918">
      <path
         id="path4920"
         style="fill:#acafb1;fill-opacity:1;fill-rule:nonzero;stroke:none"
         d="M 0,0 0.002,0 C -6.76,3.84 -16.366,6.67 -27.089,6.75 -52.863,6.93 -67.492,-5.88 -72.732,-14.91 l 8.657,0.45 c 8.155,10.68 24.971,17.89 43.122,17.89 9.133,0 15.032,-1.25 20.867,-3.62 L -0.047,-0.2 0.06,-0.09 0,0" />
    </g>
    <g
       transform="matrix(1.9966471,0,0,-1.9966471,586.25762,477.62968)"
       id="g4922">
      <path
         id="path4924"
         style="fill:#a7aaac;fill-opacity:1;fill-rule:nonzero;stroke:none"
         d="M 0,0 0.002,0 C -6.761,3.84 -16.367,6.67 -27.089,6.75 -52.863,6.92 -67.493,-5.88 -72.732,-14.91 l 8.657,0.45 c 8.155,10.68 24.971,17.88 43.122,17.88 9.132,0 15.032,-1.24 20.867,-3.61 L -0.047,-0.2 0.06,-0.09 0,0" />
    </g>
    <g
       transform="matrix(1.9966471,0,0,-1.9966471,586.31952,477.48992)"
       id="g4926">
      <path
         id="path4928"
         style="fill:#a2a5a7;fill-opacity:1;fill-rule:nonzero;stroke:none"
         d="M 0,0 0.002,0 C -6.76,3.84 -16.366,6.67 -27.089,6.75 -52.862,6.93 -67.491,-5.88 -72.732,-14.91 l 8.658,0.45 c 8.155,10.68 24.97,17.88 43.122,17.88 9.132,0 15.031,-1.24 20.867,-3.61 L -0.046,-0.2 0.06,-0.09 0,0" />
    </g>
    <g
       transform="matrix(1.9966471,0,0,-1.9966471,586.38341,477.35015)"
       id="g4930">
      <path
         id="path4932"
         style="fill:#9da0a2;fill-opacity:1;fill-rule:nonzero;stroke:none"
         d="M 0,0 0.002,0 C -6.76,3.84 -16.366,6.67 -27.089,6.75 -52.863,6.92 -67.492,-5.88 -72.732,-14.91 l 8.657,0.45 c 8.155,10.68 24.971,17.88 43.122,17.88 9.132,0 15.032,-1.24 20.868,-3.61 L -0.047,-0.2 0.06,-0.09 0,0" />
    </g>
    <g
       transform="matrix(1.9966471,0,0,-1.9966471,586.4473,477.21038)"
       id="g4934">
      <path
         id="path4936"
         style="fill:#989a9d;fill-opacity:1;fill-rule:nonzero;stroke:none"
         d="M 0,0 0.001,0 C -6.76,3.84 -16.366,6.67 -27.089,6.75 -52.863,6.92 -67.492,-5.88 -72.732,-14.91 l 8.657,0.45 c 8.155,10.67 24.971,17.88 43.122,17.88 9.132,0 15.032,-1.24 20.867,-3.61 L -0.047,-0.2 0.06,-0.09 0,0" />
    </g>
    <g
       transform="matrix(1.9966471,0,0,-1.9966471,454.95211,510.27486)"
       id="g4938">
      <path
         id="path4940"
         style="fill:#ffffff;fill-opacity:1;fill-rule:nonzero;stroke:none"
         d="m 0,0 9.29,-15.36 -8.928,0 -9.02,14.92 L 0,0" />
    </g>
    <g
       transform="matrix(1.9966471,0,0,-1.9966471,577.26073,502.46797)"
       id="g4942">
      <path
         id="path4944"
         style="fill:#ffffff;fill-opacity:1;fill-rule:nonzero;stroke:none"
         d="m 0,0 -0.226,0 -0.04,-0.2 -0.937,-3.81 -0.081,-0.22 0.189,0 16.344,0.1 -1.51,-4.97 -16.035,-0.14 -0.185,0 -0.036,-0.19 -1.107,-4.23 -0.038,-0.08 16.811,0 -1.205,-5.59 -24.331,0 L -6.178,5.5 18.2,5.71 16.489,0.19 0,0" />
    </g>
    <g
       transform="matrix(1.9966471,0,0,-1.9966471,455.12183,510.0752)"
       id="g4946">
      <path
         id="path4948"
         style="fill:#fbfbfb;fill-opacity:1;fill-rule:nonzero;stroke:none"
         d="m 0,0 9.29,-15.36 -8.928,0 L -8.659,-0.44 0,0" />
    </g>
    <g
       transform="matrix(1.9966471,0,0,-1.9966471,577.53227,502.26831)"
       id="g4950">
      <path
         id="path4952"
         style="fill:#fbfbfb;fill-opacity:1;fill-rule:nonzero;stroke:none"
         d="m 0,0 -0.226,0 -0.04,-0.2 -0.937,-3.81 -0.081,-0.22 0.189,0 16.344,0.1 -1.51,-4.97 -16.034,-0.14 -0.186,0 -0.036,-0.19 -1.107,-4.23 -0.038,-0.08 16.811,0 -1.205,-5.59 -24.331,0 L -6.177,5.5 18.201,5.71 16.489,0.19 0,0" />
    </g>
    <g
       transform="matrix(1.9966471,0,0,-1.9966471,455.29154,509.87553)"
       id="g4954">
      <path
         id="path4956"
         style="fill:#f7f7f7;fill-opacity:1;fill-rule:nonzero;stroke:none"
         d="m 0,0 9.29,-15.36 -8.929,0 L -8.658,-0.44 0,0" />
    </g>
    <g
       transform="matrix(1.9966471,0,0,-1.9966471,577.80581,502.08861)"
       id="g4958">
      <path
         id="path4960"
         style="fill:#f7f7f7;fill-opacity:1;fill-rule:nonzero;stroke:none"
         d="m 0,0 -0.226,0 -0.04,-0.19 -0.937,-3.81 -0.082,-0.22 0.189,0 16.344,0.1 -1.51,-4.97 -16.034,-0.14 -0.186,0 -0.035,-0.19 -1.108,-4.23 -0.037,-0.08 16.811,0 -1.205,-5.6 -24.331,0 L -6.179,5.51 18.2,5.721 16.489,0.2 0,0" />
    </g>
    <g
       transform="matrix(1.9966471,0,0,-1.9966471,455.46126,509.67587)"
       id="g4962">
      <path
         id="path4964"
         style="fill:#f2f2f3;fill-opacity:1;fill-rule:nonzero;stroke:none"
         d="m 0,0 9.29,-15.36 -8.929,0 L -8.658,-0.44 0,0" />
    </g>
    <g
       transform="matrix(1.9966471,0,0,-1.9966471,578.07736,501.88894)"
       id="g4966">
      <path
         id="path4968"
         style="fill:#f2f2f3;fill-opacity:1;fill-rule:nonzero;stroke:none"
         d="m 0,0 -0.226,0 -0.04,-0.19 -0.937,-3.81 -0.082,-0.22 0.189,0 16.344,0.1 -1.509,-4.97 -16.035,-0.14 -0.185,0 -0.036,-0.19 -1.108,-4.23 -0.037,-0.08 16.811,0 -1.206,-5.6 -24.33,0 L -6.178,5.51 18.2,5.72 16.489,0.2 0,0" />
    </g>
    <g
       transform="matrix(1.9966471,0,0,-1.9966471,455.63097,509.4762)"
       id="g4970">
      <path
         id="path4972"
         style="fill:#eeeeee;fill-opacity:1;fill-rule:nonzero;stroke:none"
         d="m 0,0 9.29,-15.36 -8.929,0 L -8.658,-0.44 0,0" />
    </g>
    <g
       transform="matrix(1.9966471,0,0,-1.9966471,578.3489,501.68928)"
       id="g4974">
      <path
         id="path4976"
         style="fill:#eeeeee;fill-opacity:1;fill-rule:nonzero;stroke:none"
         d="M 0,0 -0.225,0 -0.266,-0.19 -1.203,-4 l -0.082,-0.22 0.189,0 16.344,0.1 -1.509,-4.97 -16.035,-0.14 -0.185,0 -0.035,-0.19 -1.108,-4.23 -0.038,-0.08 16.812,0 -1.206,-5.6 -24.331,0 L -6.178,5.51 18.2,5.72 16.489,0.2 0,0" />
    </g>
    <g
       transform="matrix(1.9966471,0,0,-1.9966471,455.79869,509.27654)"
       id="g4978">
      <path
         id="path4980"
         style="fill:#e9eaea;fill-opacity:1;fill-rule:nonzero;stroke:none"
         d="m 0,0 9.291,-15.36 -8.929,0 L -8.657,-0.44 0,0" />
    </g>
    <g
       transform="matrix(1.9966471,0,0,-1.9966471,578.62045,501.48961)"
       id="g4982">
      <path
         id="path4984"
         style="fill:#e9eaea;fill-opacity:1;fill-rule:nonzero;stroke:none"
         d="M 0,0 -0.225,0 -0.266,-0.19 -1.203,-4 l -0.082,-0.22 0.19,0 16.343,0.1 -1.508,-4.97 -16.036,-0.14 -0.185,0 -0.035,-0.19 -1.108,-4.23 -0.037,-0.08 16.81,0 -1.205,-5.599 -24.33,0 L -6.178,5.51 18.2,5.72 16.49,0.2 0,0" />
    </g>
    <g
       transform="matrix(1.9966471,0,0,-1.9966471,455.96841,509.07687)"
       id="g4986">
      <path
         id="path4988"
         style="fill:#e4e5e6;fill-opacity:1;fill-rule:nonzero;stroke:none"
         d="m 0,0 9.291,-15.36 -8.929,0 -9.02,14.92 L 0,0" />
    </g>
    <g
       transform="matrix(1.9966471,0,0,-1.9966471,578.89399,501.28995)"
       id="g4990">
      <path
         id="path4992"
         style="fill:#e4e5e6;fill-opacity:1;fill-rule:nonzero;stroke:none"
         d="M 0,0 -0.226,0 -0.267,-0.19 -1.203,-4 l -0.083,-0.23 0.19,0 16.344,0.11 -1.509,-4.97 -16.036,-0.14 -0.184,0 -0.035,-0.19 -1.108,-4.23 -0.038,-0.08 16.811,0 -1.206,-5.6 -24.33,0 L -6.178,5.51 18.199,5.72 16.489,0.2 0,0" />
    </g>
    <g
       transform="matrix(1.9966471,0,0,-1.9966471,456.13812,508.87521)"
       id="g4994">
      <path
         id="path4996"
         style="fill:#dfe0e1;fill-opacity:1;fill-rule:nonzero;stroke:none"
         d="m 0,0 9.291,-15.361 -8.93,0 -9.019,14.92 L 0,0" />
    </g>
    <g
       transform="matrix(1.9966471,0,0,-1.9966471,579.16553,501.09028)"
       id="g4998">
      <path
         id="path5000"
         style="fill:#dfe0e1;fill-opacity:1;fill-rule:nonzero;stroke:none"
         d="M 0,0 -0.226,0 -0.267,-0.19 -1.203,-4 l -0.082,-0.23 0.189,0 16.344,0.11 -1.508,-4.97 -16.037,-0.14 -0.184,0 -0.036,-0.19 -1.107,-4.229 -0.038,-0.081 16.811,0 -1.205,-5.6 -24.331,0 L -6.178,5.51 18.2,5.72 16.489,0.2 0,0" />
    </g>
    <g
       transform="matrix(1.9966471,0,0,-1.9966471,456.30784,508.67754)"
       id="g5002">
      <path
         id="path5004"
         style="fill:#dadbdc;fill-opacity:1;fill-rule:nonzero;stroke:none"
         d="m 0,0 9.29,-15.36 -8.929,0 L -8.658,-0.44 0,0" />
    </g>
    <g
       transform="matrix(1.9966471,0,0,-1.9966471,579.43707,500.89062)"
       id="g5006">
      <path
         id="path5008"
         style="fill:#dadbdc;fill-opacity:1;fill-rule:nonzero;stroke:none"
         d="m 0,0 -0.225,0 -0.042,-0.19 -0.936,-3.809 -0.082,-0.231 0.189,0 16.345,0.11 -1.509,-4.97 -16.036,-0.14 -0.184,0 -0.037,-0.19 -1.107,-4.23 -0.038,-0.08 16.812,0 -1.207,-5.6 -24.33,0 L -6.178,5.51 18.2,5.72 16.49,0.2 0,0" />
    </g>
    <g
       transform="matrix(1.9966471,0,0,-1.9966471,456.47755,508.47788)"
       id="g5010">
      <path
         id="path5012"
         style="fill:#d5d6d7;fill-opacity:1;fill-rule:nonzero;stroke:none"
         d="m 0,0 9.29,-15.36 -8.929,0 L -8.658,-0.44 0,0" />
    </g>
    <g
       transform="matrix(1.9966471,0,0,-1.9966471,579.70862,500.69096)"
       id="g5014">
      <path
         id="path5016"
         style="fill:#d5d6d7;fill-opacity:1;fill-rule:nonzero;stroke:none"
         d="M 0,0 -0.225,0 -0.266,-0.19 -1.202,-4 l -0.083,-0.23 0.189,0 16.345,0.11 -1.508,-4.97 -16.037,-0.139 -0.184,0 -0.036,-0.191 -1.107,-4.23 -0.038,-0.079 16.811,0 -1.206,-5.601 -24.33,0 L -6.177,5.51 18.2,5.72 16.49,0.2 0,0" />
    </g>
    <g
       transform="matrix(1.9966471,0,0,-1.9966471,456.64727,508.27821)"
       id="g5018">
      <path
         id="path5020"
         style="fill:#d0d1d3;fill-opacity:1;fill-rule:nonzero;stroke:none"
         d="m 0,0 9.29,-15.36 -8.929,0 L -8.658,-0.44 0,0" />
    </g>
    <g
       transform="matrix(1.9966471,0,0,-1.9966471,579.98016,500.49129)"
       id="g5022">
      <path
         id="path5024"
         style="fill:#d0d1d3;fill-opacity:1;fill-rule:nonzero;stroke:none"
         d="M 0,0 -0.225,0 -0.267,-0.19 -1.202,-4 l -0.083,-0.23 0.189,0 16.345,0.11 -1.508,-4.97 -16.037,-0.14 -0.184,0 -0.036,-0.19 -1.107,-4.23 -0.038,-0.08 16.811,0 -1.206,-5.6 -24.33,0 L -6.177,5.51 18.2,5.72 16.49,0.2 0,0" />
    </g>
    <g
       transform="matrix(1.9966471,0,0,-1.9966471,456.81698,508.07855)"
       id="g5026">
      <path
         id="path5028"
         style="fill:#cbcdce;fill-opacity:1;fill-rule:nonzero;stroke:none"
         d="m 0,0 9.29,-15.36 -8.929,0 L -8.658,-0.44 0,0" />
    </g>
    <g
       transform="matrix(1.9966471,0,0,-1.9966471,580.25171,500.29163)"
       id="g5030">
      <path
         id="path5032"
         style="fill:#cbcdce;fill-opacity:1;fill-rule:nonzero;stroke:none"
         d="M 0,0 -0.224,0 -0.266,-0.19 -1.202,-4 l -0.083,-0.23 0.19,0 16.344,0.11 -1.507,-4.97 -16.038,-0.14 -0.184,0 -0.035,-0.19 -1.108,-4.23 -0.038,-0.08 16.811,0 -1.206,-5.6 -24.329,0 L -6.177,5.51 18.2,5.72 16.491,0.201 0,0" />
    </g>
    <g
       transform="matrix(1.9966471,0,0,-1.9966471,456.9867,507.87889)"
       id="g5034">
      <path
         id="path5036"
         style="fill:#c6c8c9;fill-opacity:1;fill-rule:nonzero;stroke:none"
         d="m 0,0 9.29,-15.36 -8.929,0 L -8.658,-0.44 0,0" />
    </g>
    <g
       transform="matrix(1.9966471,0,0,-1.9966471,580.52525,500.09196)"
       id="g5038">
      <path
         id="path5040"
         style="fill:#c6c8c9;fill-opacity:1;fill-rule:nonzero;stroke:none"
         d="M 0,0 -0.225,0 -0.267,-0.19 -1.203,-4 l -0.083,-0.23 0.19,0 16.345,0.11 -1.508,-4.97 -16.038,-0.14 -0.183,0 -0.036,-0.19 -1.108,-4.23 -0.037,-0.08 16.81,0 -1.206,-5.6 -24.329,0 L -6.178,5.5 18.199,5.72 16.49,0.2 0,0" />
    </g>
    <g
       transform="matrix(1.9966471,0,0,-1.9966471,457.15641,507.67922)"
       id="g5042">
      <path
         id="path5044"
         style="fill:#c0c3c4;fill-opacity:1;fill-rule:nonzero;stroke:none"
         d="m 0,0 9.289,-15.359 -8.928,0 L -8.658,-0.44 0,0" />
    </g>
    <g
       transform="matrix(1.9966471,0,0,-1.9966471,580.79679,499.8903)"
       id="g5046">
      <path
         id="path5048"
         style="fill:#c0c3c4;fill-opacity:1;fill-rule:nonzero;stroke:none"
         d="m 0,0 -0.225,0 -0.042,-0.191 -0.935,-3.81 -0.083,-0.23 0.189,0 16.344,0.11 -1.507,-4.97 -16.038,-0.14 -0.183,0 -0.036,-0.19 -1.107,-4.23 -0.038,-0.08 16.811,0 -1.206,-5.6 -24.33,0 6.209,24.84 24.376,0.21 L 16.49,0.189 0,0" />
    </g>
    <g
       transform="matrix(1.9966471,0,0,-1.9966471,457.32613,507.47956)"
       id="g5050">
      <path
         id="path5052"
         style="fill:#bbbebf;fill-opacity:1;fill-rule:nonzero;stroke:none"
         d="m 0,0 9.289,-15.36 -8.928,0 L -8.658,-0.44 0,0" />
    </g>
    <g
       transform="matrix(1.9966471,0,0,-1.9966471,581.06833,499.69263)"
       id="g5054">
      <path
         id="path5056"
         style="fill:#bbbebf;fill-opacity:1;fill-rule:nonzero;stroke:none"
         d="M 0,0 -0.224,0 -0.267,-0.19 -1.202,-4 l -0.083,-0.23 0.189,0 16.345,0.11 -1.507,-4.97 -16.039,-0.14 -0.183,0 -0.035,-0.19 -1.108,-4.23 -0.038,-0.08 16.811,0 -1.206,-5.6 -24.33,0 L -6.177,5.51 18.2,5.72 16.491,0.19 0,0" />
    </g>
    <g
       transform="matrix(1.9966471,0,0,-1.9966471,457.49584,507.27989)"
       id="g5058">
      <path
         id="path5060"
         style="fill:#b6b9bb;fill-opacity:1;fill-rule:nonzero;stroke:none"
         d="m 0,0 9.289,-15.36 -8.929,0 L -8.658,-0.44 0,0" />
    </g>
    <g
       transform="matrix(1.9966471,0,0,-1.9966471,581.33988,499.49297)"
       id="g5062">
      <path
         id="path5064"
         style="fill:#b6b9bb;fill-opacity:1;fill-rule:nonzero;stroke:none"
         d="M 0,0 -0.224,0 -0.266,-0.19 -1.201,-4 l -0.084,-0.23 0.19,0 16.344,0.11 -1.507,-4.97 -16.039,-0.14 -0.182,0 -0.036,-0.19 -1.107,-4.23 -0.038,-0.08 16.811,0 -1.207,-5.6 -24.33,0 L -6.177,5.5 18.2,5.72 16.491,0.19 0,0" />
    </g>
    <g
       transform="matrix(1.9966471,0,0,-1.9966471,457.66356,507.08023)"
       id="g5066">
      <path
         id="path5068"
         style="fill:#b1b4b6;fill-opacity:1;fill-rule:nonzero;stroke:none"
         d="m 0,0 9.29,-15.36 -8.929,0 L -8.657,-0.44 0,0" />
    </g>
    <g
       transform="matrix(1.9966471,0,0,-1.9966471,581.61142,499.2933)"
       id="g5070">
      <path
         id="path5072"
         style="fill:#b1b4b6;fill-opacity:1;fill-rule:nonzero;stroke:none"
         d="M 0,0 -0.224,0 -0.266,-0.19 -1.201,-4 l -0.084,-0.23 0.19,0 16.344,0.11 -1.507,-4.98 -16.038,-0.13 -0.183,0 -0.036,-0.19 -1.107,-4.23 -0.038,-0.08 16.811,0 -1.207,-5.6 -24.329,0 L -6.176,5.5 18.2,5.72 16.492,0.19 0,0" />
    </g>
    <g
       transform="matrix(1.9966471,0,0,-1.9966471,457.83328,506.88056)"
       id="g5074">
      <path
         id="path5076"
         style="fill:#acafb1;fill-opacity:1;fill-rule:nonzero;stroke:none"
         d="m 0,0 9.29,-15.36 -8.929,0 L -8.657,-0.44 0,0" />
    </g>
    <g
       transform="matrix(1.9966471,0,0,-1.9966471,581.88496,499.09364)"
       id="g5078">
      <path
         id="path5080"
         style="fill:#acafb1;fill-opacity:1;fill-rule:nonzero;stroke:none"
         d="M 0,0 -0.224,0 -0.267,-0.19 -1.202,-4 l -0.083,-0.23 0.189,0 16.344,0.11 -1.506,-4.98 -16.039,-0.13 -0.183,0 -0.035,-0.19 -1.108,-4.23 -0.037,-0.08 16.81,0 -1.206,-5.6 -24.33,0 L -6.177,5.5 18.199,5.71 16.491,0.19 0,0" />
    </g>
    <g
       transform="matrix(1.9966471,0,0,-1.9966471,458.00299,506.6809)"
       id="g5082">
      <path
         id="path5084"
         style="fill:#a7aaac;fill-opacity:1;fill-rule:nonzero;stroke:none"
         d="m 0,0 9.29,-15.36 -8.929,0 L -8.657,-0.45 0,0" />
    </g>
    <g
       transform="matrix(1.9966471,0,0,-1.9966471,582.15651,498.89397)"
       id="g5086">
      <path
         id="path5088"
         style="fill:#a7aaac;fill-opacity:1;fill-rule:nonzero;stroke:none"
         d="M 0,0 -0.224,0 -0.267,-0.19 -1.202,-4 l -0.084,-0.23 0.19,0 16.344,0.11 -1.506,-4.98 -16.039,-0.13 -0.182,0 -0.036,-0.19 -1.108,-4.23 -0.037,-0.08 16.81,0 -1.206,-5.6 -24.329,0 L -6.177,5.501 18.199,5.71 16.491,0.19 0,0" />
    </g>
    <g
       transform="matrix(1.9966471,0,0,-1.9966471,458.17271,506.48123)"
       id="g5090">
      <path
         id="path5092"
         style="fill:#a2a5a7;fill-opacity:1;fill-rule:nonzero;stroke:none"
         d="m 0,0 9.289,-15.36 -8.928,0 L -8.657,-0.449 0,0" />
    </g>
    <g
       transform="matrix(1.9966471,0,0,-1.9966471,582.42805,498.69431)"
       id="g5094">
      <path
         id="path5096"
         style="fill:#a2a5a7;fill-opacity:1;fill-rule:nonzero;stroke:none"
         d="M 0,0 -0.223,0 -0.267,-0.19 -1.201,-4 l -0.085,-0.229 0.19,0 16.345,0.109 -1.507,-4.98 -16.039,-0.13 -0.182,0 -0.036,-0.19 -1.107,-4.23 -0.038,-0.08 16.811,0 -1.207,-5.6 -24.329,0 L -6.177,5.5 18.199,5.71 16.492,0.19 0,0" />
    </g>
    <g
       transform="matrix(1.9966471,0,0,-1.9966471,458.34242,506.28157)"
       id="g5098">
      <path
         id="path5100"
         style="fill:#9da0a2;fill-opacity:1;fill-rule:nonzero;stroke:none"
         d="m 0,0 9.289,-15.36 -8.928,0 L -8.657,-0.45 0,0" />
    </g>
    <g
       transform="matrix(1.9966471,0,0,-1.9966471,582.6996,498.49464)"
       id="g5102">
      <path
         id="path5104"
         style="fill:#9da0a2;fill-opacity:1;fill-rule:nonzero;stroke:none"
         d="M 0,0 -0.223,0 -0.267,-0.19 -1.201,-4 l -0.084,-0.23 0.19,0 16.344,0.11 -1.506,-4.98 -16.04,-0.13 -0.182,0 -0.035,-0.19 -1.108,-4.23 -0.038,-0.08 16.811,0 -1.207,-5.599 -24.329,0 L -6.176,5.5 18.2,5.71 16.492,0.19 0,0" />
    </g>
    <g
       transform="matrix(1.9966471,0,0,-1.9966471,458.51214,506.0819)"
       id="g5106">
      <path
         id="path5108"
         style="fill:#989a9d;fill-opacity:1;fill-rule:nonzero;stroke:none"
         d="m 0,0 9.289,-15.36 -8.929,0 L -8.657,-0.45 0,0" />
    </g>
    <g
       transform="matrix(1.9966471,0,0,-1.9966471,582.97314,498.29498)"
       id="g5110">
      <path
         id="path5112"
         style="fill:#989a9d;fill-opacity:1;fill-rule:nonzero;stroke:none"
         d="M 0,0 -0.224,0 -0.267,-0.19 -1.202,-4 l -0.084,-0.23 0.19,0 16.344,0.11 -1.506,-4.98 -16.04,-0.13 -0.181,0 -0.036,-0.19 -1.107,-4.23 -0.039,-0.09 16.811,0 -1.207,-5.59 -24.329,0 L -6.177,5.5 18.199,5.71 16.491,0.191 0,0" />
    </g>
    <g
       id="g5114"
       transform="matrix(1.9966471,0,0,-1.9966471,351.62962,596.52203)">
      <g
         id="g5116">
        <g
           id="g5122">
          <g
             id="g5124">
            <path
               id="path5132"
               style="fill:url(#linearGradient5126);stroke:none"
               d="m 53.531,45.296 9.289,-15.36 -8.929,0 -9.017,14.91 8.657,0.45" />
          </g>
        </g>
      </g>
    </g>
    <g
       id="g5134"
       transform="matrix(1.9966471,0,0,-1.9966471,351.62962,596.52203)">
      <g
         id="g5136">
        <g
           id="g5142">
          <g
             id="g5144">
            <path
               id="path5152"
               style="fill:url(#linearGradient5146);stroke:none"
               d="m 115.866,49.196 -0.224,0 -0.043,-0.19 -0.935,-3.81 -0.084,-0.23 0.19,0 16.344,0.11 -1.506,-4.98 -16.04,-0.13 -0.181,0 -0.036,-0.19 -1.107,-4.23 -0.039,-0.09 16.811,0 -1.207,-5.59 -24.329,0 6.209,24.83 24.376,0.21 -1.708,-5.519 -16.491,-0.191" />
          </g>
        </g>
      </g>
    </g>
    <g
       id="g5154"
       transform="matrix(1.9966471,0,0,-1.9966471,351.62962,596.52203)">
      <g
         id="g5156">
        <g
           id="g5162">
          <g
             id="g5164">
            <path
               id="path5172"
               style="fill:url(#linearGradient5166);stroke:none"
               d="m 117.606,59.756 0.001,0 c -6.761,3.84 -16.367,6.67 -27.09,6.75 -25.774,0.17 -40.403,-12.63 -45.643,-21.66 l 8.657,0.45 c 8.155,10.67 24.971,17.83 43.122,17.88 9.71,0.03 15.032,-1.24 20.867,-3.61 l 0.039,-0.01 0.107,0.11 -0.06,0.09" />
          </g>
        </g>
      </g>
    </g>
    <g
       id="g5174"
       transform="matrix(1.9966471,0,0,-1.9966471,351.62962,596.52203)">
      <g
         id="g5176">
        <g
           id="g5182">
          <g
             id="g5184">
            <path
               id="path5192"
               style="fill:url(#linearGradient5186);stroke:none"
               d="m 75.158,36.966 c -0.047,-0.13 -0.068,-0.21 -0.057,-0.21 l -0.012,0.22 -0.853,17.4 -7.374,-0.06 1.713,-24.429 9.892,0 6.029,14.739 0,-14.76 10.077,0 11.885,24.87 -8.107,-0.12 -7.887,-17.45 -0.066,-0.16 -0.003,0.17 -0.253,17.37 -8.067,-0.07 -6.917,-17.51" />
          </g>
        </g>
      </g>
    </g>
    <g
       id="g5194"
       transform="matrix(1.9966471,0,0,-1.9966471,351.62962,596.52203)">
      <g
         id="g5196">
        <g
           id="g5202">
          <g
             id="g5204">
            <path
               id="path5212"
               style="fill:url(#linearGradient5206);stroke:none"
               d="m 39.669,29.836 -9.353,-3.78 10.821,32.99 10.267,5.13 -11.735,-34.34" />
          </g>
        </g>
      </g>
    </g>
  </g>
</svg>
