<svg version="1.1" id="Layer_1" xmlns:x="ns_extend;" xmlns:i="ns_ai;" xmlns:graph="ns_graphs;" xmlns="http://www.w3.org/2000/svg" xmlns:xlink="http://www.w3.org/1999/xlink" x="0px" y="0px" viewBox="0 0 84 100" style="enable-background:new 0 0 84 100;" xml:space="preserve">
 <style type="text/css">
  .st0{fill:none;}
	.st1{fill:#FFFFFF;}
 </style>
 <metadata>
  <sfw xmlns="ns_sfw;">
   <slices>
   </slices>
   <sliceSourceBounds bottomLeftOrigin="true" height="100" width="84" x="136.3" y="175.6">
   </sliceSourceBounds>
  </sfw>
 </metadata>
 <path class="st0" d="M70.1,93.6c-2.6,0-3.9,3.1-2.1,5c1.8,1.8,5,0.5,5-2C73,94.9,71.7,93.6,70.1,93.6z M70.9,98.6
	c0,0-1.1-1.7-1.2-1.8h-0.1v1.8h-0.8v-4.3l1.2,0c0.8-0.1,1.4,0.5,1.4,1.3c0,0.6-0.4,1-1,1.1c0.1,0.2,1.3,1.9,1.3,1.9H70.9z">
 </path>
 <path class="st0" d="M70,94.9h-0.4v1.3h0.1c0.8,0,1-0.3,1-0.7C70.7,95.3,70.6,94.9,70,94.9z">
 </path>
 <path class="st1" d="M70.1,92.9c-3.1,0-4.7,3.8-2.5,6c2.2,2.2,6,0.7,6-2.5C73.6,94.5,72,92.9,70.1,92.9z M68,98.5
	c-1.8-1.8-0.5-5,2.1-5c1.6,0,2.9,1.3,2.9,2.9C73,99.1,69.9,100.3,68,98.5z">
 </path>
 <path class="st1" d="M71.5,95.6c0-0.8-0.7-1.4-1.4-1.3l-1.2,0v4.3h0.8v-1.8h0.1c0.1,0.1,1.2,1.8,1.2,1.8h0.9c0,0-1.2-1.7-1.3-1.9
	C71.1,96.6,71.5,96.1,71.5,95.6z M69.7,96.2h-0.1v-1.3H70c0.7,0,0.8,0.3,0.8,0.6C70.7,95.9,70.5,96.2,69.7,96.2z">
 </path>
 <path class="st1" d="M42,0C25.8,0,11.7,3.1,0,9.3v49.5c0,10.4,3.9,19.1,11.3,25.2c6.8,5.5,28.2,15,30.7,16c2.5-1.1,24-10.5,30.7-16
	C80.1,77.9,84,69.2,84,58.8V9.3C72.3,3.1,58.2,0,42,0z M82.4,58.4c0,10-3.8,18.4-10.9,24.2C65,87.9,44.4,97,42,98
	c-2.4-1-23-10.1-29.5-15.4C5.4,76.8,1.6,68.4,1.6,58.4V10.9C12.9,5,26.4,2,42,2c15.6,0,29.1,3,40.4,9V58.4z">
 </path>
 <path class="st1" d="M1.6,10.9v47.5c0,10,3.8,18.4,10.9,24.2C19,87.9,39.6,97,42,98c2.4-1,23-10.1,29.5-15.4
	c7.1-5.8,10.9-14.2,10.9-24.2V10.9C71.2,5,57.6,2,42,2C26.4,2,12.9,5,1.6,10.9z M80.2,10.4v48.4c0,9.3-3.4,16.8-9.9,22.2
	C64.5,85.8,46.9,93.6,42,95.8c-5-2.2-22.6-10.2-28.3-14.8c-6.5-5.3-9.9-13-9.9-22.2V30.5c18-16.6,39.9-20.9,60.2-20.9
	C69.6,9.6,75,9.9,80.2,10.4z">
 </path>
 <path class="st1" d="M40.6,67c1.1,0.3,2.2,0.4,3.3,0.4c8.1,0,12.8-7.3,12.8-18c0-10.7-4.8-17.3-13.5-17.3c-3.5-0.1-6.9,0.8-9.9,2.6
	v47.6h7.3V67z M43.2,38c4.2,0,6,3.4,6,11.6c0,8-2,11.9-6.2,11.9c-0.8,0-1.6-0.2-2.4-0.4l0-22.5C41.4,38.2,42.3,38,43.2,38z">
 </path>
 <path class="st1" d="M18.5,67.5c3.9,0.1,7.7-0.9,11-2.9V32.9h-7.3v27.5c-1,0.6-2.2,0.9-3.5,0.9c-3.4,0-3.9-3.1-3.9-5.1V32.9H7.6v23
	h0C7.6,63.6,11.3,67.5,18.5,67.5z">
 </path>
 <path class="st1" d="M65.4,52c3.2,1.9,4.5,3.1,4.6,5.4c0.1,2.6-1.7,4.1-4.4,4.1c-2.6-0.2-5.1-1.2-7-3v6.7c2.4,1.5,5.2,2.2,8,2.3
	c7.2,0,10.4-5.1,10.6-9.8c0.1-4.3-1-7.5-7.1-11.1c-2.7-1.6-4.9-2.6-4.8-5.3c0.1-2.6,2.2-3.5,4.3-3.5c2.5,0.1,4.8,1.2,6.5,3v-6.4
	c-2.3-1.7-5.1-2.5-8-2.4c-5.3-0.1-9.7,4.2-9.8,9.5h0C58.3,45.5,59.4,48.4,65.4,52z">
 </path>
</svg>