<svg width="57" height="70" viewBox="0 0 57 70" fill="none" xmlns="http://www.w3.org/2000/svg">
<path d="M39.3686 0.0112523V0.0747153C39.0865 0.0747153 37.9229 -0.0346493 34.9943 0.0112523H8.74861C3.91715 0.0112523 0 3.9284 0 8.75986V61.2514C0 66.0828 3.91715 69.9999 8.74861 69.9999H48.1172C52.9487 69.9999 56.8658 66.0828 56.8658 61.2514V17.5084L39.3686 0.0112523ZM52.4915 61.2514C52.4915 63.666 50.5341 65.6257 48.1172 65.6257H8.74861C6.33181 65.6257 4.3743 63.666 4.3743 61.2514V8.75986C4.3743 6.34306 6.33181 4.38556 8.74861 4.38556H34.9331C34.8937 9.62381 34.9943 13.1342 34.9943 13.1342C34.9943 17.9656 38.9115 21.8828 43.7429 21.8828C43.7429 21.8828 47.3976 21.8828 52.4915 21.8828V61.2514H52.4915ZM43.7429 17.5085C41.326 17.5085 39.3686 15.5488 39.3686 13.1342C39.3686 13.1342 39.3686 9.59315 39.3686 4.38556L52.4915 17.5084H43.7429V17.5085Z" fill="#6B7280"/>
</svg>
