<svg width="87" height="81" viewBox="0 0 87 81" fill="none" xmlns="http://www.w3.org/2000/svg">
<g id="Gym time" clip-path="url(#clip0_951_8211)">
<g id="Group 96">
<path id="XMLID 382" d="M5.80225 78.937H75.1961" stroke="#4E5A7D" stroke-width="1.0207" stroke-miterlimit="10" stroke-linecap="round" stroke-linejoin="round"/>
<path id="XMLID 381" d="M79.0991 78.937H86.2409" stroke="#4E5A7D" stroke-width="1.0207" stroke-miterlimit="10" stroke-linecap="round" stroke-linejoin="round"/>
<path id="XMLID 380" d="M-2.07617 78.937H2.94042" stroke="#4E5A7D" stroke-width="1.0207" stroke-miterlimit="10" stroke-linecap="round" stroke-linejoin="round"/>
<path id="XMLID 390" d="M46.687 31.919H43.1884C43.0149 31.919 42.8848 31.7736 42.8848 31.6137V24.1989C42.8848 24.0244 43.0293 23.8936 43.1884 23.8936H46.687C46.8605 23.8936 46.9906 24.039 46.9906 24.1989V31.6137C46.9906 31.7736 46.8605 31.919 46.687 31.919Z" fill="#4E5A7D"/>
<path id="XMLID 335" d="M46.687 31.919H43.1884C43.0149 31.919 42.8848 31.7736 42.8848 31.6137V24.1989C42.8848 24.0244 43.0293 23.8936 43.1884 23.8936H46.687C46.8605 23.8936 46.9906 24.039 46.9906 24.1989V31.6137C46.9906 31.7736 46.8605 31.919 46.687 31.919Z" stroke="#4E5A7D" stroke-width="1.0207" stroke-miterlimit="10" stroke-linecap="round" stroke-linejoin="round"/>
<path id="XMLID 394" d="M51.2551 27.1209H38.6196C37.2607 27.1209 36.1475 26.0159 36.1475 24.6347V23.1372C36.1475 21.7706 37.2462 20.6511 38.6196 20.6511H51.2551C52.614 20.6511 53.7272 21.756 53.7272 23.1372V24.6347C53.7128 26.0014 52.614 27.1209 51.2551 27.1209Z" fill="#BCAFAA"/>
<path id="XMLID 330" d="M51.2551 25.7687H38.6196C37.2607 25.7687 36.1475 24.6638 36.1475 23.2826V24.6347C36.1475 26.0013 37.2462 27.1208 38.6196 27.1208H51.2551C52.614 27.1208 53.7272 26.0159 53.7272 24.6347V23.2826C53.7128 24.6638 52.614 25.7687 51.2551 25.7687Z" fill="#A09592"/>
<path id="XMLID 329" d="M51.2551 20.6658H38.6196C37.2607 20.6658 36.1475 21.7707 36.1475 23.1519V24.6349C36.1475 24.664 36.1475 24.6785 36.1475 24.7076C36.1908 23.37 37.2751 22.3087 38.6052 22.3087H51.2551C52.5851 22.3087 53.6694 23.3846 53.7128 24.7076C53.7128 24.6785 53.7128 24.664 53.7128 24.6349V23.1374C53.7128 21.7708 52.614 20.6658 51.2551 20.6658Z" fill="#D1CAC7"/>
<path id="XMLID 336" d="M51.2551 27.1209H38.6196C37.2607 27.1209 36.1475 26.0159 36.1475 24.6347V23.1372C36.1475 21.7706 37.2462 20.6511 38.6196 20.6511H51.2551C52.614 20.6511 53.7272 21.756 53.7272 23.1372V24.6347C53.7128 26.0014 52.614 27.1209 51.2551 27.1209Z" stroke="#4E5A7D" stroke-width="1.0207" stroke-miterlimit="10" stroke-linecap="round" stroke-linejoin="round"/>
<g id="XMLID 257">
<path id="XMLID 255" d="M58.9611 32.156L56.7075 30.8475L54.3944 34.8765L56.648 36.185L58.9611 32.156Z" fill="#4E5A7D"/>
<path id="XMLID 31" d="M58.9611 32.156L56.7075 30.8475L54.3944 34.8765L56.648 36.185L58.9611 32.156Z" stroke="#4E5A7D" stroke-width="1.0207" stroke-miterlimit="10" stroke-linecap="round" stroke-linejoin="round"/>
<path id="XMLID 256" d="M59.4964 32.4706L56.1713 30.537C55.4774 30.1299 55.246 29.2575 55.6508 28.5597L55.7665 28.3561C56.1713 27.6583 57.0387 27.4256 57.7327 27.8327L61.0578 29.7664C61.7517 30.1735 61.983 31.0458 61.5782 31.7437L61.4626 31.9472C61.0722 32.6305 60.1904 32.8777 59.4964 32.4706Z" fill="#E08484"/>
<path id="XMLID 365" d="M59.4964 32.4706L56.1713 30.537C55.4774 30.1299 55.246 29.2575 55.6508 28.5597L55.7665 28.3561C56.1713 27.6583 57.0387 27.4256 57.7327 27.8327L61.0578 29.7664C61.7517 30.1735 61.983 31.0458 61.5782 31.7437L61.4626 31.9472C61.0722 32.6305 60.1904 32.8777 59.4964 32.4706Z" fill="#E08484"/>
<path id="XMLID 375" d="M55.4917 29.3305L55.6074 29.127C56.0122 28.4291 56.8796 28.1965 57.5735 28.6036L60.8986 30.5372C61.289 30.7699 61.5347 31.1479 61.607 31.555C61.9685 30.8716 61.7371 29.9993 61.0577 29.6068L57.7325 27.6731C57.0386 27.266 56.1567 27.5132 55.7664 28.1965L55.6507 28.4C55.4773 28.7054 55.4194 29.0397 55.4773 29.3596C55.4773 29.3596 55.4772 29.3451 55.4917 29.3305Z" fill="#E99697"/>
<path id="XMLID 254" d="M59.4964 32.4706L56.1713 30.537C55.4774 30.1299 55.246 29.2575 55.6508 28.5597L55.7665 28.3561C56.1713 27.6583 57.0387 27.4256 57.7327 27.8327L61.0578 29.7664C61.7517 30.1735 61.983 31.0458 61.5782 31.7437L61.4626 31.9472C61.0722 32.6305 60.1904 32.8777 59.4964 32.4706Z" stroke="#4E5A7D" stroke-width="1.0207" stroke-miterlimit="10" stroke-linecap="round" stroke-linejoin="round"/>
</g>
<g id="XMLID 17">
<path id="XMLID 20" d="M33.4349 36.199L35.6885 34.8905L33.3754 30.8615L31.1218 32.17L33.4349 36.199Z" fill="#4E5A7D"/>
<path id="XMLID 109" d="M33.4349 36.199L35.6885 34.8905L33.3754 30.8615L31.1218 32.17L33.4349 36.199Z" stroke="#4E5A7D" stroke-width="1.0207" stroke-miterlimit="10" stroke-linecap="round" stroke-linejoin="round"/>
<path id="XMLID 19" d="M30.5818 32.4713L33.9069 30.5377C34.6008 30.1306 34.8322 29.2583 34.4274 28.5604L34.3117 28.3569C33.9069 27.659 33.0395 27.4264 32.3455 27.8335L29.0204 29.7671C28.3265 30.1742 28.0952 31.0465 28.5 31.7444L28.6156 31.9479C29.006 32.6313 29.8878 32.8784 30.5818 32.4713Z" fill="#E08484"/>
<path id="XMLID 364" d="M30.5818 32.4713L33.9069 30.5377C34.6008 30.1306 34.8322 29.2583 34.4274 28.5604L34.3117 28.3569C33.9069 27.659 33.0395 27.4264 32.3455 27.8335L29.0204 29.7671C28.3265 30.1742 28.0952 31.0465 28.5 31.7444L28.6156 31.9479C29.006 32.6313 29.8878 32.8784 30.5818 32.4713Z" fill="#E08484"/>
<path id="XMLID 372" d="M29.078 30.6832L32.4032 28.7495C33.0971 28.3424 33.979 28.5896 34.3693 29.2729L34.485 29.4764C34.5139 29.5346 34.5428 29.6073 34.5717 29.6654C34.6729 29.302 34.6295 28.9094 34.4271 28.5605L34.3115 28.357C33.9067 27.6591 33.0393 27.4265 32.3453 27.8336L29.0202 29.7672C28.3986 30.1307 28.1383 30.9012 28.3986 31.5555C28.4998 31.2066 28.7311 30.8867 29.078 30.6832Z" fill="#E99697"/>
<path id="XMLID 18" d="M30.5818 32.4713L33.9069 30.5377C34.6008 30.1306 34.8322 29.2583 34.4274 28.5604L34.3117 28.3569C33.9069 27.659 33.0395 27.4264 32.3455 27.8335L29.0204 29.7671C28.3265 30.1742 28.0952 31.0465 28.5 31.7444L28.6156 31.9479C29.006 32.6313 29.8878 32.8784 30.5818 32.4713Z" stroke="#4E5A7D" stroke-width="1.0207" stroke-miterlimit="10" stroke-linecap="round" stroke-linejoin="round"/>
</g>
<g id="XMLID 464">
<g id="XMLID 476">
<path id="XMLID 477" d="M51.4146 20.7094V27.121" stroke="#4E5A7D" stroke-width="1.0207" stroke-miterlimit="10" stroke-linecap="round" stroke-linejoin="round"/>
</g>
<g id="XMLID 474">
<path id="XMLID 475" d="M48.8125 20.7094V27.121" stroke="#4E5A7D" stroke-width="1.0207" stroke-miterlimit="10" stroke-linecap="round" stroke-linejoin="round"/>
</g>
<g id="XMLID 471">
<path id="XMLID 472" d="M46.2095 20.7094V27.121" stroke="#4E5A7D" stroke-width="1.0207" stroke-miterlimit="10" stroke-linecap="round" stroke-linejoin="round"/>
</g>
<g id="XMLID 469">
<path id="XMLID 470" d="M43.6069 20.7094V27.121" stroke="#4E5A7D" stroke-width="1.0207" stroke-miterlimit="10" stroke-linecap="round" stroke-linejoin="round"/>
</g>
<g id="XMLID 467">
<path id="XMLID 468" d="M41.0044 20.7094V27.121" stroke="#4E5A7D" stroke-width="1.0207" stroke-miterlimit="10" stroke-linecap="round" stroke-linejoin="round"/>
</g>
<g id="XMLID 465">
<path id="XMLID 466" d="M38.4023 20.7094V27.1211" stroke="#4E5A7D" stroke-width="1.0207" stroke-miterlimit="10" stroke-linecap="round" stroke-linejoin="round"/>
</g>
</g>
<path id="XMLID 16" d="M44.9378 78.937C58.2478 78.937 69.0377 68.0861 69.0377 54.7008C69.0377 41.3155 58.2478 30.4645 44.9378 30.4645C31.6278 30.4645 20.8379 41.3155 20.8379 54.7008C20.8379 68.0861 31.6278 78.937 44.9378 78.937Z" fill="#E08484"/>
<path id="XMLID 368" d="M44.9375 77.0039C31.9551 77.0039 21.3725 66.6813 20.8665 53.7418C20.852 54.0616 20.8521 54.3815 20.8521 54.7159C20.8521 68.1061 31.637 78.9521 44.9519 78.9521C58.2669 78.9521 69.0518 68.1061 69.0518 54.7159C69.0518 54.396 69.0374 54.0616 69.0374 53.7418C68.5025 66.6668 57.9199 77.0039 44.9375 77.0039Z" fill="#D87171"/>
<path id="XMLID 367" d="M44.9378 32.0494C57.978 32.0494 68.604 42.4738 69.0232 55.5006C69.0377 55.2389 69.0377 54.9772 69.0377 54.7155C69.0377 41.3252 58.2527 30.4792 44.9378 30.4792C31.6228 30.4792 20.8379 41.3252 20.8379 54.7155C20.8379 54.9772 20.8379 55.2389 20.8523 55.5006C21.2716 42.4738 31.8831 32.0494 44.9378 32.0494Z" fill="#E99697"/>
<path id="XMLID 350" d="M44.9377 73.8631C55.4611 73.8631 63.9921 65.2839 63.9921 54.701C63.9921 44.118 55.4611 35.5388 44.9377 35.5388C34.4142 35.5388 25.8833 44.118 25.8833 54.701C25.8833 65.2839 34.4142 73.8631 44.9377 73.8631Z" fill="#FBE3D5"/>
<path id="XMLID 370" d="M44.9377 71.4934C34.8177 71.4934 26.5339 63.5552 25.9267 53.5234C25.8978 53.9159 25.8833 54.3085 25.8833 54.701C25.8833 65.2853 34.413 73.8632 44.9377 73.8632C55.4624 73.8632 63.9921 65.2853 63.9921 54.701C63.9921 54.3085 63.9776 53.9159 63.9487 53.5234C63.3415 63.5552 55.0576 71.4934 44.9377 71.4934Z" fill="#FFF4EE"/>
<path id="XMLID 369" d="M44.9377 37.9958C55.0432 37.9958 63.3126 45.9195 63.9487 55.9222C63.9776 55.5151 63.9921 55.108 63.9921 54.701C63.9921 44.1167 55.4624 35.5388 44.9377 35.5388C34.413 35.5388 25.8833 44.1167 25.8833 54.701C25.8833 55.108 25.8978 55.5151 25.9267 55.9222C26.5628 45.9195 34.8322 37.9958 44.9377 37.9958Z" fill="#F9D1BD"/>
<path id="XMLID 383" d="M45.0381 54.3083V61.5196" stroke="#4E5A7D" stroke-width="2.21152" stroke-miterlimit="10" stroke-linecap="round" stroke-linejoin="round"/>
<path id="XMLID 378" d="M45.0381 54.3083V43.6077" stroke="#4E5A7D" stroke-width="2.21152" stroke-miterlimit="10" stroke-linecap="round" stroke-linejoin="round"/>
<path id="XMLID 334" d="M44.9377 73.8631C55.4611 73.8631 63.9921 65.2839 63.9921 54.701C63.9921 44.118 55.4611 35.5388 44.9377 35.5388C34.4142 35.5388 25.8833 44.118 25.8833 54.701C25.8833 65.2839 34.4142 73.8631 44.9377 73.8631Z" stroke="#4E5A7D" stroke-width="1.0207" stroke-miterlimit="10" stroke-linecap="round" stroke-linejoin="round"/>
<g id="XMLID 14">
<path id="XMLID 340" d="M45.0381 36.1062V39.9008" stroke="#4E5A7D" stroke-width="1.70117" stroke-miterlimit="10" stroke-linecap="round" stroke-linejoin="round"/>
<path id="XMLID 15" d="M45.0381 69.5158V73.3104" stroke="#4E5A7D" stroke-width="1.70117" stroke-miterlimit="10" stroke-linecap="round" stroke-linejoin="round"/>
</g>
<g id="XMLID 13">
<path id="XMLID 78" d="M63.5298 54.7005H59.771" stroke="#4E5A7D" stroke-width="1.70117" stroke-miterlimit="10" stroke-linecap="round" stroke-linejoin="round"/>
<path id="XMLID 77" d="M30.3072 54.7007H26.5483" stroke="#4E5A7D" stroke-width="1.70117" stroke-miterlimit="10" stroke-linecap="round" stroke-linejoin="round"/>
</g>
<g id="XMLID 388">
<path id="XMLID 391" d="M58.4546 41.2091L57.0522 42.6339" stroke="#4E5A7D" stroke-width="1.0207" stroke-miterlimit="10" stroke-linecap="round" stroke-linejoin="round"/>
<path id="XMLID 389" d="M33.024 66.783L31.5205 68.3096" stroke="#4E5A7D" stroke-width="1.0207" stroke-miterlimit="10" stroke-linecap="round" stroke-linejoin="round"/>
</g>
<g id="XMLID 385">
<path id="XMLID 392" d="M58.4546 68.1931L57.0522 66.7829" stroke="#4E5A7D" stroke-width="1.0207" stroke-miterlimit="10" stroke-linecap="round" stroke-linejoin="round"/>
<path id="XMLID 386" d="M33.024 42.6337L31.5205 41.1071" stroke="#4E5A7D" stroke-width="1.0207" stroke-miterlimit="10" stroke-linecap="round" stroke-linejoin="round"/>
</g>
<path id="XMLID 12" d="M45.0381 56.2712C46.116 56.2712 46.9898 55.3925 46.9898 54.3085C46.9898 53.2245 46.116 52.3457 45.0381 52.3457C43.9602 52.3457 43.0864 53.2245 43.0864 54.3085C43.0864 55.3925 43.9602 56.2712 45.0381 56.2712Z" fill="#FBE3D5"/>
<path id="XMLID 11" d="M45.0381 56.2712C46.116 56.2712 46.9898 55.3925 46.9898 54.3085C46.9898 53.2245 46.116 52.3457 45.0381 52.3457C43.9602 52.3457 43.0864 53.2245 43.0864 54.3085C43.0864 55.3925 43.9602 56.2712 45.0381 56.2712Z" stroke="#4E5A7D" stroke-width="1.53105" stroke-miterlimit="10" stroke-linecap="round" stroke-linejoin="round"/>
<path id="XMLID 384" d="M45.0383 62.8718C45.7809 62.8718 46.3828 62.2665 46.3828 61.5197C46.3828 60.773 45.7809 60.1676 45.0383 60.1676C44.2958 60.1676 43.6938 60.773 43.6938 61.5197C43.6938 62.2665 44.2958 62.8718 45.0383 62.8718Z" fill="#FBE3D5"/>
<path id="XMLID 10" d="M45.0383 62.8718C45.7809 62.8718 46.3828 62.2665 46.3828 61.5197C46.3828 60.773 45.7809 60.1676 45.0383 60.1676C44.2958 60.1676 43.6938 60.773 43.6938 61.5197C43.6938 62.2665 44.2958 62.8718 45.0383 62.8718Z" stroke="#4E5A7D" stroke-width="1.0207" stroke-miterlimit="10" stroke-linecap="round" stroke-linejoin="round"/>
<path id="XMLID 306" d="M44.9378 78.937C58.2478 78.937 69.0377 68.0861 69.0377 54.7008C69.0377 41.3155 58.2478 30.4645 44.9378 30.4645C31.6278 30.4645 20.8379 41.3155 20.8379 54.7008C20.8379 68.0861 31.6278 78.937 44.9378 78.937Z" stroke="#4E5A7D" stroke-width="1.0207" stroke-miterlimit="10" stroke-linecap="round" stroke-linejoin="round"/>
<g id="XMLID 451">
<path id="XMLID 454" d="M14.5488 32.4124L15.6042 31.9908" stroke="white" stroke-width="0.340233" stroke-miterlimit="10" stroke-linecap="round" stroke-linejoin="round"/>
<path id="XMLID 453" d="M13.5659 31.7587L13.9418 30.5229" stroke="white" stroke-width="0.340233" stroke-miterlimit="10" stroke-linecap="round" stroke-linejoin="round"/>
<path id="XMLID 452" d="M14.0576 31.9909L15.1419 30.7551" stroke="white" stroke-width="0.340233" stroke-miterlimit="10" stroke-linecap="round" stroke-linejoin="round"/>
</g>
</g>
</g>
<defs>
<clipPath id="clip0_951_8211">
<rect width="86" height="80" fill="white" transform="translate(0.343262 0.343292)"/>
</clipPath>
</defs>
</svg>
