<svg width="332" height="332" viewBox="0 0 332 332" fill="none" xmlns="http://www.w3.org/2000/svg">
<path d="M33.8723 274.144C33.8723 274.144 -16.1485 215.687 54.9775 196.906C126.104 178.125 144.845 162.046 178.47 113.38C212.095 64.7134 356.77 77.7295 297.922 276.392L33.8723 274.144Z" fill="#F4F9FF"/>
<path d="M53.6029 159.76C100.229 160.886 146.578 135.25 170.399 95.1562C174.999 87.4139 173.168 76.4662 166.299 70.643C159.43 64.8197 148.329 64.8047 141.445 70.6114C130.049 80.2212 114.938 84.0093 100.277 86.6786C85.616 89.3478 70.4818 91.2867 57.2234 98.106C43.965 104.925 32.6869 117.97 32.8944 132.875C33.1019 147.78 48.5067 159.637 53.6029 159.76Z" fill="#F4F9FF"/>
<path d="M293.164 206.77H238.716V272.089H293.164V206.77Z" fill="#AFB3B9"/>
<path d="M255.578 210.188H242.132V212.678H255.578V210.188Z" fill="#F4F9FF"/>
<path d="M271.846 210.188H258.4V212.678H271.846V210.188Z" fill="#F4F9FF"/>
<path d="M287.782 210.188H274.336V212.678H287.782V210.188Z" fill="#F4F9FF"/>
<path d="M255.744 214.67H242.298V217.16H255.744V214.67Z" fill="#F4F9FF"/>
<path d="M272.012 214.67H258.566V217.16H272.012V214.67Z" fill="#F4F9FF"/>
<path d="M287.948 214.67H274.502V217.16H287.948V214.67Z" fill="#F4F9FF"/>
<path d="M255.744 219.152H242.298V221.642H255.744V219.152Z" fill="#F4F9FF"/>
<path d="M272.012 219.152H258.566V221.642H272.012V219.152Z" fill="#F4F9FF"/>
<path d="M287.948 219.152H274.502V221.642H287.948V219.152Z" fill="#F4F9FF"/>
<path d="M255.91 223.634H242.464V226.124H255.91V223.634Z" fill="#F4F9FF"/>
<path d="M272.178 223.634H258.732V226.124H272.178V223.634Z" fill="#F4F9FF"/>
<path d="M288.114 223.634H274.668V226.124H288.114V223.634Z" fill="#F4F9FF"/>
<path d="M256.076 228.116H242.63V230.606H256.076V228.116Z" fill="#F4F9FF"/>
<path d="M272.344 228.116H258.898V230.606H272.344V228.116Z" fill="#F4F9FF"/>
<path d="M288.28 228.116H274.834V230.606H288.28V228.116Z" fill="#F4F9FF"/>
<path d="M256.076 232.598H242.63V235.088H256.076V232.598Z" fill="#F4F9FF"/>
<path d="M272.344 232.598H258.898V235.088H272.344V232.598Z" fill="#F4F9FF"/>
<path d="M288.28 232.598H274.834V235.088H288.28V232.598Z" fill="#F4F9FF"/>
<path d="M288.28 239.428H242.63V256.028H288.28V239.428Z" fill="#F4F9FF"/>
<path d="M294.386 192.052H277.454V272.089H294.386V192.052Z" fill="#AFB3B9"/>
<path d="M297.764 199.381H292.784V272.089H297.764V199.381Z" fill="#AFB3B9"/>
<path d="M74.1968 230.093H47.9688V272.257H74.1968V230.093Z" fill="#AFB3B9"/>
<path d="M70.2228 234.256H50.7178V238.074H70.2228V234.256Z" fill="#F4F9FF"/>
<path d="M70.2228 240.634H50.7178V244.452H70.2228V240.634Z" fill="#F4F9FF"/>
<path d="M70.233 247.01H50.728V250.828H70.233V247.01Z" fill="#F4F9FF"/>
<path d="M70.233 253.256H50.728V257.074H70.233V253.256Z" fill="#F4F9FF"/>
<path d="M93.3037 216.647H67.0757V272.257H93.3037V216.647Z" fill="#AFB3B9"/>
<path d="M149.43 227.603H90.8135V272.257H149.43V227.603Z" fill="#AFB3B9"/>
<path d="M47.9688 247.523H33.3608V272.257H47.9688V247.523Z" fill="#AFB3B9"/>
<path d="M101.044 206.663H100.546V227.603H101.044V206.663Z" fill="#AFB3B9"/>
<path d="M106.635 211.484H106.137V227.603H106.635V211.484Z" fill="#AFB3B9"/>
<path d="M96.6303 203.322H95.4683V227.603H96.6303V203.322Z" fill="#AFB3B9"/>
<path d="M55.8623 224.049H51.0483V230.093H55.8623V224.049Z" fill="#AFB3B9"/>
<path d="M79.5254 210.115H69.0674V216.645H79.5254V210.115Z" fill="#AFB3B9"/>
<path d="M88.6739 203.322H84.1919V216.647H88.6739V203.322Z" fill="#AFB3B9"/>
<path d="M62.4723 215.461H58.4883V230.093H62.4723V215.461Z" fill="#AFB3B9"/>
<path d="M39.088 249.93H35.187V253.831H39.088V249.93Z" fill="#F4F9FF"/>
<path d="M45.4791 249.93H41.5781V253.831H45.4791V249.93Z" fill="#F4F9FF"/>
<path d="M39.088 256.487H35.187V260.388H39.088V256.487Z" fill="#F4F9FF"/>
<path d="M45.4791 256.487H41.5781V260.388H45.4791V256.487Z" fill="#F4F9FF"/>
<path d="M39.088 263.044H35.187V266.945H39.088V263.044Z" fill="#F4F9FF"/>
<path d="M45.4791 263.044H41.5781V266.945H45.4791V263.044Z" fill="#F4F9FF"/>
<path d="M71.7269 220.181H70.2329V270.479H71.7269V220.181Z" fill="#F4F9FF"/>
<path d="M78.367 220.181H76.873V270.479H78.367V220.181Z" fill="#F4F9FF"/>
<path d="M84.3446 220.181H82.8506V270.479H84.3446V220.181Z" fill="#F4F9FF"/>
<path d="M90.6542 220.181H89.1602V270.479H90.6542V220.181Z" fill="#F4F9FF"/>
<path d="M141.371 228.052H115.143V270.216H141.371V228.052Z" fill="#AFB3B9"/>
<path d="M137.398 232.217H117.893V236.035H137.398V232.217Z" fill="#F4F9FF"/>
<path d="M137.398 238.593H117.893V242.411H137.398V238.593Z" fill="#F4F9FF"/>
<path d="M137.408 244.971H117.903V248.789H137.408V244.971Z" fill="#F4F9FF"/>
<path d="M137.408 251.218H117.903V255.036H137.408V251.218Z" fill="#F4F9FF"/>
<path d="M160.479 214.606H134.251V270.216H160.479V214.606Z" fill="#AFB3B9"/>
<path d="M216.605 225.562H157.989V270.216H216.605V225.562Z" fill="#AFB3B9"/>
<path d="M115.143 245.482H100.535V270.216H115.143V245.482Z" fill="#AFB3B9"/>
<path d="M168.219 204.625H167.721V225.564H168.219V204.625Z" fill="#AFB3B9"/>
<path d="M173.811 209.444H173.312V225.562H173.811V209.444Z" fill="#AFB3B9"/>
<path d="M163.806 201.282H162.644V225.562H163.806V201.282Z" fill="#AFB3B9"/>
<path d="M123.038 222.01H118.224V228.054H123.038V222.01Z" fill="#AFB3B9"/>
<path d="M146.701 208.076H136.243V214.606H146.701V208.076Z" fill="#AFB3B9"/>
<path d="M155.847 201.282H151.365V214.606H155.847V201.282Z" fill="#AFB3B9"/>
<path d="M129.648 213.423H125.664V228.054H129.648V213.423Z" fill="#AFB3B9"/>
<path d="M106.263 247.889H102.362V251.79H106.263V247.889Z" fill="#F4F9FF"/>
<path d="M112.654 247.889H108.753V251.79H112.654V247.889Z" fill="#F4F9FF"/>
<path d="M106.263 254.446H102.362V258.347H106.263V254.446Z" fill="#F4F9FF"/>
<path d="M112.654 254.446H108.753V258.347H112.654V254.446Z" fill="#F4F9FF"/>
<path d="M106.263 261.003H102.362V264.904H106.263V261.003Z" fill="#F4F9FF"/>
<path d="M112.654 261.003H108.753V264.904H112.654V261.003Z" fill="#F4F9FF"/>
<path d="M138.902 218.141H137.408V268.439H138.902V218.141Z" fill="#F4F9FF"/>
<path d="M145.542 218.141H144.048V268.439H145.542V218.141Z" fill="#F4F9FF"/>
<path d="M151.52 218.141H150.026V268.439H151.52V218.141Z" fill="#F4F9FF"/>
<path d="M157.829 218.141H156.335V268.439H157.829V218.141Z" fill="#F4F9FF"/>
<path d="M208.513 224.374H182.285V266.538H208.513V224.374Z" fill="#AFB3B9"/>
<path d="M204.54 228.539H185.035V232.357H204.54V228.539Z" fill="#F4F9FF"/>
<path d="M204.54 234.915H185.035V238.733H204.54V234.915Z" fill="#F4F9FF"/>
<path d="M204.55 241.291H185.045V245.109H204.55V241.291Z" fill="#F4F9FF"/>
<path d="M204.55 247.539H185.045V251.357H204.55V247.539Z" fill="#F4F9FF"/>
<path d="M227.619 210.928H201.391V266.538H227.619V210.928Z" fill="#AFB3B9"/>
<path d="M283.745 221.884H225.129V266.538H283.745V221.884Z" fill="#AFB3B9"/>
<path d="M182.285 241.804H167.677V266.538H182.285V241.804Z" fill="#AFB3B9"/>
<path d="M235.361 200.945H234.863V221.884H235.361V200.945Z" fill="#AFB3B9"/>
<path d="M240.952 205.765H240.454V221.884H240.952V205.765Z" fill="#AFB3B9"/>
<path d="M230.948 197.603H229.786V221.884H230.948V197.603Z" fill="#AFB3B9"/>
<path d="M190.18 218.33H185.366V224.374H190.18V218.33Z" fill="#AFB3B9"/>
<path d="M213.843 204.397H203.385V210.928H213.843V204.397Z" fill="#AFB3B9"/>
<path d="M222.989 197.603H218.507V210.928H222.989V197.603Z" fill="#AFB3B9"/>
<path d="M196.79 209.744H192.806V224.376H196.79V209.744Z" fill="#AFB3B9"/>
<path d="M173.403 244.211H169.502V248.112H173.403V244.211Z" fill="#F4F9FF"/>
<path d="M179.795 244.211H175.894V248.112H179.795V244.211Z" fill="#F4F9FF"/>
<path d="M173.403 250.768H169.502V254.669H173.403V250.768Z" fill="#F4F9FF"/>
<path d="M179.795 250.768H175.894V254.669H179.795V250.768Z" fill="#F4F9FF"/>
<path d="M173.403 257.325H169.502V261.226H173.403V257.325Z" fill="#F4F9FF"/>
<path d="M179.795 257.325H175.894V261.226H179.795V257.325Z" fill="#F4F9FF"/>
<path d="M206.044 214.462H204.55V264.76H206.044V214.462Z" fill="#F4F9FF"/>
<path d="M212.684 214.462H211.19V264.76H212.684V214.462Z" fill="#F4F9FF"/>
<path d="M218.662 214.462H217.168V264.76H218.662V214.462Z" fill="#F4F9FF"/>
<path d="M224.97 214.462H223.476V264.76H224.97V214.462Z" fill="#F4F9FF"/>
<path d="M238.716 251.762H211.824V272.232H238.716V251.762Z" fill="#AFB3B9"/>
<path d="M263.956 267.066H262.96V268.062H263.956V267.066Z" fill="#AFB3B9"/>
<path d="M224.797 75.872L220.674 74.544C222.334 69.6237 229.624 67.8259 233.373 71.4165C231.406 69.0626 233.041 64.7881 236.077 64.3466C239.113 63.905 241.887 67.5421 240.677 70.3574C243.026 67.65 248.105 68.2808 249.719 71.4813C251.656 69.0809 255.896 69.1573 257.748 71.6207C266.462 69.9916 275.46 70.8713 283.694 74.1572L210.113 77.7278C215.407 76.7601 220.707 75.7923 224.797 75.872Z" fill="#F4F9FF"/>
<path d="M80.3786 44.322L84.4108 42.7417C82.452 37.9277 75.055 36.5997 71.5408 40.4177C73.3552 37.9443 71.4545 33.7777 68.3968 33.5337C65.339 33.2896 62.7926 37.0894 64.1837 39.8217C61.6688 37.267 56.639 38.2182 55.2296 41.5133C53.1447 39.2391 48.9216 39.5794 47.2251 42.1574C38.4272 41.0794 29.5041 42.5232 21.4951 46.3206L95.156 45.2499C89.8058 44.6108 84.4556 43.9767 80.3786 44.322Z" fill="#F4F9FF"/>
<path d="M18.4062 276.39C18.4062 275.069 18.9309 273.803 19.8649 272.869C20.7988 271.935 22.0655 271.41 23.3863 271.41H310.234C311.555 271.41 312.822 271.935 313.756 272.869C314.69 273.803 315.214 275.069 315.214 276.39C315.214 277.711 314.69 278.977 313.756 279.911C312.822 280.845 311.555 281.37 310.234 281.37H23.3863C22.7323 281.37 22.0847 281.241 21.4805 280.991C20.8763 280.741 20.3273 280.374 19.8649 279.911C19.4024 279.449 19.0356 278.9 18.7853 278.296C18.5351 277.692 18.4062 277.044 18.4062 276.39Z" fill="#F9FAFB"/>
<path d="M104.618 207.311V191.327C104.618 190.842 104.811 190.378 105.153 190.035C105.495 189.693 105.96 189.501 106.444 189.501H108.27V207.311H104.618Z" fill="#F9FAFB"/>
<path d="M91.0807 192.173C91.6302 192.142 91.5986 192.339 92.002 192.713C92.1578 192.871 92.2812 193.058 92.3655 193.264C92.818 194.233 92.9987 195.307 92.8884 196.371C93.92 195.449 95.1115 194.723 96.4043 194.23C95.8266 193.43 95.5162 192.47 95.2573 191.518C95.1795 191.189 95.0682 190.87 94.9253 190.565C94.8608 190.423 94.7635 190.298 94.6414 190.201C94.4131 190.067 94.1419 190.027 93.8844 190.088C93.1856 190.196 92.5564 190.55 91.9522 190.918C91.494 191.204 91.0464 191.505 90.6093 191.821C90.4565 191.933 91.089 192.067 91.0757 192.256" fill="#E5E7EB"/>
<path d="M92.9599 204.881C92.9599 204.881 85.5912 209.167 83.7585 207.885C83.7585 207.885 78.2324 206.813 75.1465 192.834C75.0552 192.426 74.9672 192.004 74.8809 191.572L77.0057 190.696C77.0057 190.696 77.3775 191.142 77.9685 191.901C79.5787 193.968 82.8157 198.352 84.6085 202.359C84.6085 202.359 90.2325 197.06 93.7501 195.815L92.9599 204.881Z" fill="#D1D5DB"/>
<path d="M92.6777 196.786C92.6064 196.798 92.5393 196.827 92.4829 196.872C92.4266 196.917 92.3829 196.976 92.3563 197.043C92.3296 197.11 92.3209 197.183 92.331 197.254C92.3411 197.326 92.3696 197.393 92.4137 197.45C91.9888 197.55 91.8178 198.053 91.7265 198.48C90.3769 204.788 90.5462 211.3 90.2192 217.736C90.1943 218.684 90.0831 219.629 89.8872 220.558C91.292 220.641 92.7017 220.579 94.0937 220.372C95.176 220.206 96.2517 219.96 97.3522 220.023C98.3482 220.079 99.306 220.393 100.285 220.573C101.791 220.847 103.337 220.805 104.826 220.45C105.176 219.288 105.121 218.031 104.992 216.816C104.635 213.352 103.728 209.972 102.834 206.607C102.45 205.176 102.062 203.735 101.433 202.392C101.035 201.584 100.595 200.797 100.114 200.035L97.0335 194.96C96.961 194.804 96.8359 194.677 96.6799 194.603C96.4459 194.527 96.2118 194.698 96.0159 194.852C94.8981 195.753 93.647 196.474 92.3075 196.991" fill="#AFB3B9"/>
<path d="M96.7562 193.212C95.0221 194.129 93.3532 195.164 91.7612 196.31C91.9445 196.584 92.0534 196.901 92.0773 197.23C92.1012 197.559 92.0392 197.888 91.8973 198.186C93.7487 196.627 95.7629 195.273 97.9049 194.147C97.5137 193.829 97.1065 193.532 96.6848 193.256" fill="#E5E7EB"/>
<path d="M116.505 207.671H84.3081V224.922H116.505V207.671Z" fill="#D1D5DB"/>
<path d="M92.4355 207.671H84.3081V224.922H92.4355V207.671Z" fill="#AFB3B9"/>
<path d="M115.338 208.664H107.523V210.357H115.338V208.664Z" fill="white"/>
<path d="M115.338 210.979H107.523V212.673H115.338V210.979Z" fill="white"/>
<path d="M95.3355 194.75L96.9457 194.182C96.9457 194.182 97.4885 193.578 101.478 197.454C105.466 201.33 111.335 210.334 111.335 210.334L103.418 223.838L100.827 222.178L104.356 210.176C104.356 210.176 85.8088 190.717 99.2498 195.41" fill="#D1D5DB"/>
<path d="M100.855 222.085C100.244 222.251 99.7625 222.583 99.223 222.915C99.1679 222.943 99.1185 222.982 99.077 223.028C99.0358 223.088 99.0086 223.158 98.9973 223.23C98.831 223.942 98.5779 224.63 98.2437 225.28C98.9288 225.468 99.6335 225.576 100.344 225.601C100.436 225.61 100.529 225.6 100.617 225.572C100.727 225.522 100.82 225.44 100.885 225.338C101.052 225.116 101.192 224.874 101.301 224.618C102.105 224.452 102.848 224.417 103.413 223.843C102.697 223.511 102.062 222.825 101.388 222.412C101.215 222.288 101.034 222.177 100.845 222.08" fill="#E5E7EB"/>
<path d="M97.1748 184.003C97.2528 183.986 97.3292 183.966 97.4055 183.945C97.3292 183.966 97.2512 183.984 97.1748 184.003Z" fill="#E1C2B0"/>
<path d="M88.3585 188.078C88.3473 188.252 88.3507 188.427 88.3685 188.601C88.4465 189.448 88.7104 189.861 89.0491 190.02C89.0732 190.032 89.0982 190.042 89.1238 190.05C89.3222 190.114 89.5347 190.12 89.7363 190.067C89.6583 189.53 89.5886 189.016 89.5388 188.573C89.5022 188.254 89.4724 187.968 89.4541 187.731C89.3396 187.811 88.9329 187.348 88.9329 187.348C88.5859 187.414 88.4116 187.728 88.3585 188.078Z" fill="#F4F9FF"/>
<path d="M92.2793 193.016C92.5482 193.101 92.9632 192.434 93.1774 192.485C93.4529 192.552 93.6621 192.592 93.7584 192.61H93.7799V192.623L93.7949 192.613H93.8131V192.6C93.8629 192.57 93.9692 192.504 94.1119 192.409C94.2082 192.346 94.3211 192.268 94.4439 192.181C94.6647 192.015 95.2889 192.054 95.5462 191.835C95.5943 192.246 95.4715 192.412 95.7338 192.973C95.6892 193.028 95.6416 193.08 95.591 193.129C95.4348 193.286 95.2591 193.422 95.0681 193.534C94.797 193.695 94.4998 193.808 94.1899 193.866C93.9229 193.916 93.65 193.927 93.3799 193.898C93.1162 193.869 92.8586 193.8 92.6163 193.692C92.5582 193.666 92.5648 193.624 92.5084 193.592C92.5847 193.212 92.6628 194.177 92.2793 193.016Z" fill="#F4F9FF"/>
<path d="M96.8359 190.277C97.0711 190.408 97.3398 190.466 97.6078 190.443C97.6767 190.434 97.7442 190.416 97.8087 190.39C98.1407 190.253 98.4329 189.871 98.6005 189.081C98.7798 188.236 98.6005 187.894 98.3183 187.796C98.2826 187.831 98.2403 187.86 98.1938 187.879C98.0378 188.033 97.4286 188.061 97.3306 188.234C97.314 188.32 97.2941 188.412 97.2725 188.508C97.2642 188.551 97.2543 188.594 97.2443 188.639L97.2294 188.705C97.2194 188.75 97.2078 188.795 97.1978 188.843V188.863C97.1779 188.946 97.158 189.029 97.1381 189.119L97.1165 189.207C97.1165 189.207 97.1165 189.207 97.1165 189.217C97.1049 189.262 97.0932 189.308 97.0833 189.353C97.0733 189.398 97.0667 189.423 97.0567 189.457C96.982 189.723 96.9123 189.997 96.8359 190.277Z" fill="#F4F9FF"/>
<path d="M90.7603 186.479L92.7523 186.081C92.6941 186.05 92.6336 186.023 92.5713 186.001C92.2998 185.907 92.0085 185.883 91.7253 185.933C91.4422 185.984 91.1767 186.106 90.9545 186.289C90.8832 186.345 90.8181 186.409 90.7603 186.479Z" fill="#FFECE6"/>
<path d="M89.4541 187.726C89.474 187.963 89.5022 188.249 89.5388 188.568C89.5902 189.016 89.6583 189.529 89.7363 190.062C89.7712 190.302 89.8093 190.548 89.8492 190.794C89.9322 191.31 90.3339 191.8 90.8286 192.221C91.1415 192.485 91.4745 192.724 91.8246 192.937C92.0653 193.085 92.2944 193.211 92.4886 193.312C92.7392 193.443 92.9335 193.533 93.0214 193.573L93.0414 193.583H93.058H93.0762C93.131 193.564 93.2422 193.526 93.4082 193.47C93.5161 193.431 93.6456 193.383 93.785 193.329C94.0374 193.229 94.3328 193.103 94.635 192.952C95.0146 192.766 95.3754 192.543 95.7123 192.288C96.1273 191.969 96.4576 191.597 96.5755 191.184C96.6635 190.875 96.7415 190.568 96.8262 190.269C96.9108 189.97 96.9706 189.713 97.0353 189.454C97.0353 189.419 97.0536 189.384 97.0619 189.35C97.0702 189.315 97.0851 189.257 97.0951 189.213C97.0951 189.213 97.0951 189.213 97.0951 189.203C97.0951 189.174 97.11 189.144 97.1167 189.115C97.1382 189.028 97.1582 188.949 97.1764 188.86V188.84C97.1864 188.793 97.198 188.747 97.208 188.702L97.2229 188.636C97.2329 188.591 97.2428 188.548 97.2511 188.505C97.2727 188.408 97.2926 188.315 97.3092 188.231C97.3047 188.239 97.3008 188.248 97.2976 188.257C97.2777 188.129 97.2594 188 97.2412 187.872C97.0984 187.625 96.8859 187.26 96.6402 186.84L96.5074 186.614L96.3315 186.313L96.197 186.084C96.1505 186.008 96.1057 185.93 96.0592 185.852L95.8401 185.482C95.5567 185.704 95.2608 185.911 94.9537 186.099C94.902 186.1 94.8503 186.104 94.7993 186.113L94.8723 186.149C93.3928 187.028 91.7123 187.512 89.9919 187.555H89.7429C89.7463 187.568 89.474 187.746 89.4541 187.726Z" fill="#E5E7EB"/>
<path d="M96.9907 180.088L96.9392 180.059C97.3553 180.397 97.7263 180.788 98.0431 181.221C97.8028 180.754 97.4387 180.362 96.9907 180.088ZM94.836 186.131C92.5668 186.463 89.7962 186.76 87.4672 186.672L87.4888 186.707C87.6548 186.999 87.8789 187.595 88.1528 187.912C88.209 187.98 88.2778 188.036 88.3553 188.078C88.4068 187.728 88.5811 187.414 88.928 187.344C88.928 187.344 89.3364 187.806 89.4509 187.728C89.4609 187.739 89.7431 187.562 89.758 187.562H90.007C91.728 187.519 93.409 187.035 94.8891 186.156L94.836 186.131ZM87.9022 181.239L87.937 181.254C88.2292 180.85 88.5686 180.483 88.948 180.16C88.5296 180.445 88.1738 180.812 87.9022 181.239Z" fill="#E5E7EB"/>
<path d="M99.2547 185.327C99.1866 185.615 99.1185 185.903 99.0422 186.186C98.9974 186.352 98.9492 186.518 98.8978 186.684L98.3898 187.728L98.3383 187.778L98.3201 187.796C98.2845 187.832 98.2422 187.86 98.1956 187.879C98.0395 188.033 97.4303 188.061 97.3324 188.234C97.3278 188.243 97.3239 188.251 97.3208 188.261C97.3025 188.133 97.2826 188.003 97.2643 187.875C97.2643 187.826 97.2494 187.776 97.2427 187.726C97.1465 187.076 97.0507 186.429 96.9556 185.782L97.7457 185.638C98.4097 185.513 98.8828 185.415 99.1053 185.367L99.2364 185.339V185.327H99.2547Z" fill="#E5E7EB"/>
<path d="M95.8599 185.492L96.079 185.862L96.2168 186.094L96.3512 186.323L96.5272 186.624L96.66 186.85C96.9057 187.27 97.1165 187.635 97.2609 187.882C97.2609 187.832 97.246 187.783 97.2393 187.734C97.1132 186.882 96.9876 186.031 96.8625 185.181C96.8359 185.005 96.811 184.831 96.7845 184.655L96.6185 184.821C96.3777 185.058 96.1244 185.282 95.8599 185.492Z" fill="#F4F9FF"/>
<path d="M93.918 180.811C93.9794 180.811 94.0425 180.822 94.1039 180.83C94.1653 180.839 94.2085 180.844 94.2599 180.854L94.3662 180.872L94.4774 180.895L94.5869 180.922C94.6356 180.933 94.6838 180.946 94.7314 180.962C94.7928 180.98 94.8559 181 94.9156 181.021L94.9671 181.04C95.0069 181.055 95.0484 181.068 95.0883 181.084L95.158 181.113L95.2078 181.133C95.227 181.14 95.2459 181.148 95.2642 181.157L95.4302 181.235C95.485 181.262 95.5398 181.29 95.5962 181.32C95.6527 181.35 95.6543 181.352 95.6825 181.368L95.744 181.405L95.7606 181.415L95.7954 181.436L95.8402 181.465C96.0259 181.58 96.2029 181.71 96.3698 181.851L96.3963 181.875C96.52 181.979 96.638 182.09 96.7499 182.207C96.7665 182.225 96.7831 182.241 96.7981 182.26C96.813 182.278 96.8479 182.314 96.8711 182.343L96.9408 182.426C96.969 182.459 96.9956 182.494 97.0222 182.527C97.0487 182.56 97.0537 182.567 97.0686 182.588C97.0836 182.61 97.1201 182.66 97.145 182.696L97.2031 182.781C97.2164 182.801 97.2297 182.821 97.2413 182.841L97.2612 182.872C97.2695 182.884 97.2745 182.895 97.2828 182.905C97.3077 182.947 97.3326 182.988 97.3558 183.032C97.3791 183.075 97.4023 183.116 97.4239 183.161C97.4455 183.206 97.467 183.247 97.487 183.292C97.5069 183.337 97.5268 183.38 97.5451 183.425C97.5633 183.47 97.5633 183.47 97.5716 183.491C97.5799 183.471 97.5866 183.45 97.5932 183.43L97.6065 183.387V183.372C97.6065 183.357 97.6148 183.34 97.6198 183.325C97.6247 183.31 97.638 183.254 97.6463 183.218C97.6546 183.181 97.6463 183.191 97.6546 183.178C97.6554 183.164 97.6554 183.151 97.6546 183.138L97.6646 183.07C97.6654 183.065 97.6654 183.061 97.6646 183.056C97.6654 183.05 97.6654 183.044 97.6646 183.038C97.6646 183.018 97.6646 183 97.6646 182.98C97.6654 182.976 97.6654 182.971 97.6646 182.967C97.6646 182.937 97.6646 182.909 97.6646 182.879C97.6646 182.849 97.6646 182.829 97.6646 182.804C97.6646 182.779 97.6646 182.72 97.6646 182.678V182.655C97.6654 182.639 97.6654 182.623 97.6646 182.607C97.6654 182.592 97.6654 182.577 97.6646 182.562C97.6646 182.53 97.6646 182.497 97.6646 182.466C97.6646 182.466 97.6646 182.466 97.6646 182.456C97.6646 182.422 97.6563 182.391 97.6513 182.358C97.6463 182.324 97.6513 182.309 97.638 182.285L97.6231 182.212C97.6231 182.202 97.6231 182.19 97.6231 182.18C97.6202 182.165 97.6163 182.151 97.6115 182.137C97.6115 182.117 97.6015 182.097 97.5949 182.077C97.5956 182.069 97.5956 182.06 97.5949 182.052C97.5949 182.034 97.5849 182.014 97.5783 181.996C97.5633 181.948 97.5467 181.901 97.5301 181.855L97.5052 181.79C97.4853 181.742 97.4637 181.695 97.4421 181.649L97.4172 181.599L97.3724 181.518C97.3724 181.501 97.3542 181.486 97.3442 181.47C97.3342 181.453 97.3243 181.438 97.316 181.421C97.3077 181.405 97.2761 181.358 97.2546 181.328L97.2114 181.267C97.1882 181.237 97.1666 181.207 97.1433 181.179L97.0703 181.094C97.0544 181.075 97.0372 181.057 97.0188 181.04C96.9952 181.014 96.9703 180.99 96.9441 180.967L96.8661 180.897L96.813 180.852L96.7383 180.796L96.6868 180.759L96.6072 180.706L96.5258 180.658C96.5075 180.647 96.4887 180.637 96.4694 180.628L96.4129 180.6L96.3598 180.575L96.2868 180.543L96.232 180.52H96.2071L96.1805 180.51L96.1274 180.492L96.061 180.47C96.0079 180.454 95.9531 180.439 95.895 180.427L95.817 180.41L95.744 180.397H95.7191H95.7074L95.646 180.389H95.5697H95.5348H95.4767H95.3837H95.2841C95.231 180.389 95.1796 180.389 95.1181 180.389H95.0667L94.9621 180.402L94.8592 180.42L94.7563 180.442L94.655 180.469L94.5637 180.497H94.5438L94.4757 180.52L94.4458 180.532L94.3612 180.566L94.2898 180.6L94.2284 180.63H94.2118L94.152 180.661C94.0703 180.705 93.992 180.755 93.918 180.811Z" fill="#82635A"/>
<path d="M99.2415 185.331V185.342L99.1104 185.371L99.205 185.342L99.2415 185.331Z" fill="#82635A"/>
<path d="M96.5057 187.939L94.5137 187.183C94.8825 187.071 95.2782 187.084 95.6388 187.22C95.9994 187.357 96.3043 187.61 96.5057 187.939Z" fill="#6B7280"/>
<path d="M91.6156 187.414L89.9058 187.945C90.1062 187.697 90.3757 187.515 90.68 187.42C90.9844 187.325 91.31 187.323 91.6156 187.414Z" fill="#6B7280"/>
<path d="M91.006 187.954C91.2334 187.882 91.504 188.096 91.6052 188.43C91.7065 188.764 91.6052 189.094 91.3828 189.16C91.1603 189.227 90.8848 189.019 90.7835 188.686C90.6823 188.352 90.7802 188.025 91.006 187.954Z" fill="#6B7280"/>
<path d="M94.7658 188.003C95.0015 187.982 95.219 188.246 95.2505 188.594C95.2821 188.943 95.1161 189.242 94.8787 189.258C94.6413 189.275 94.4255 189.014 94.394 188.667C94.3624 188.32 94.5284 188.025 94.7658 188.003Z" fill="#6B7280"/>
<path d="M92.3937 187.746C92.49 188.217 92.5846 188.689 92.6809 189.16C92.6634 189.101 92.6319 189.047 92.5891 189.002C92.5463 188.957 92.4934 188.923 92.4349 188.903C92.3764 188.883 92.3139 188.877 92.2526 188.886C92.1913 188.895 92.1331 188.918 92.0827 188.954C92.0323 188.99 91.9912 189.038 91.9629 189.093C91.9346 189.148 91.9199 189.209 91.9199 189.271C91.92 189.333 91.9348 189.394 91.9633 189.449C91.9917 189.504 92.0328 189.551 92.0833 189.587L93.1241 190.324" fill="#E5E7EB"/>
<path d="M92.1152 191.034C92.7406 191.205 93.404 191.176 94.0114 190.949C94.6188 190.722 95.1396 190.31 95.5 189.771C95.5393 190.19 95.4425 190.61 95.2238 190.969C95.0052 191.328 94.6764 191.606 94.2865 191.763C93.5013 192.062 92.5336 191.755 92.1152 191.034Z" fill="#6B7280"/>
<path d="M76.8415 190.772C77.0075 189.646 77.1735 188.519 77.3395 187.392C77.3843 187.085 77.0407 186.818 76.7336 186.866C76.5817 186.902 76.4427 186.98 76.332 187.09C76.2213 187.2 76.1431 187.339 76.1061 187.49C76.0353 187.794 76.0223 188.108 76.068 188.417C75.7481 188.268 75.406 188.173 75.0554 188.136C74.8796 188.119 74.7023 188.145 74.5387 188.212C74.375 188.278 74.23 188.383 74.1158 188.518C73.9363 188.761 73.8227 189.046 73.7863 189.346C73.7498 189.646 73.7915 189.95 73.9075 190.229C74.0235 190.508 74.2098 190.752 74.4482 190.938C74.6866 191.124 74.9689 191.244 75.2678 191.288C75.2844 191.393 75.2994 191.498 75.316 191.602C75.7617 191.223 76.2812 190.941 76.8415 190.772Z" fill="#E5E7EB"/>
<path d="M77.9636 191.896L75.1416 192.829C75.0503 192.421 74.9623 191.999 74.876 191.567L77.0008 190.691C77.0008 190.691 77.3726 191.142 77.9636 191.896Z" fill="#AFB3B9"/>
<path d="M99.2546 184.924C99.2546 185.063 99.2546 185.203 99.2413 185.339L99.2031 185.351H86.7664C86.7564 185.21 86.7515 185.068 86.7515 184.924C86.7515 184.78 86.7515 184.592 86.7714 184.426C86.8293 183.684 87.0205 182.958 87.3358 182.283C87.5025 181.924 87.7038 181.582 87.9367 181.262C88.6102 180.331 89.5273 179.603 90.5873 179.159C91.6473 178.714 92.8092 178.57 93.9455 178.743C95.0819 178.915 96.1488 179.398 97.0291 180.137C97.9094 180.876 98.5691 181.843 98.9359 182.932C98.9823 183.07 99.0238 183.211 99.0604 183.352C99.1899 183.866 99.2551 184.394 99.2546 184.924Z" fill="#AFB3B9"/>
<path d="M99.2031 185.342L99.1085 185.371C98.886 185.419 98.408 185.517 97.7489 185.641C97.5082 185.686 97.2509 185.736 96.9588 185.786C96.3379 185.895 95.6208 186.015 94.8439 186.129C92.5747 186.461 89.8042 186.758 87.4752 186.67C86.3132 186.627 85.2657 186.488 84.4407 186.21C84.4291 186.21 84.4407 186.21 84.4407 186.191C84.3859 185.195 86.7647 185.344 86.7647 185.344H99.2147L99.2031 185.342Z" fill="#D1D5DB"/>
<path d="M122.191 221.427V251.699C122.191 252.272 122.15 252.844 122.068 253.411H39.6424C39.5602 252.844 39.5192 252.272 39.5195 251.699V221.427C39.5195 218.265 40.7756 215.233 43.0114 212.997C45.2473 210.761 48.2797 209.505 51.4417 209.505H110.267C111.833 209.505 113.383 209.813 114.83 210.412C116.277 211.011 117.591 211.89 118.698 212.997C119.806 214.104 120.684 215.418 121.283 216.865C121.882 218.311 122.191 219.862 122.191 221.427Z" fill="#E5E7EB"/>
<path d="M71.0106 209.505H70.9585V209.504L71.0106 209.505Z" fill="#A54545"/>
<path d="M63.2874 207.228V207.286H68.6126L63.2874 207.228ZM63.2874 207.228V207.286H68.6126L63.2874 207.228ZM63.2874 207.228V207.286H68.6126L63.2874 207.228ZM80.0351 172.19C77.0297 172.19 74.1049 173.162 71.6974 174.961C69.2899 176.76 67.5288 179.29 66.6771 182.172L58.6377 209.381L69.6269 209.504H108.268V207.925H70.3656L59.9192 207.812L63.2874 196.836L67.5619 182.905C69.2219 177.487 74.3911 173.775 80.2575 173.775H109.156V174.391H110.436V172.197L80.0351 172.19ZM63.2874 207.228V207.286H68.6126L63.2874 207.228ZM63.2874 207.228V207.286H68.6126L63.2874 207.228Z" fill="#E5E7EB"/>
<path d="M63.2876 207.228V207.286H68.6129L63.2876 207.228Z" fill="#E5E7EB"/>
<path d="M109.158 174.385V173.769H80.2575C74.391 173.769 69.2234 177.487 67.5618 182.899L63.2873 196.83L59.9258 207.812L70.3722 207.925H108.27V247.642H110.438V174.383H109.158V174.385ZM70.9249 207.311H70.8818L68.6175 207.286H63.2873V199.119L63.9878 196.838L68.1743 183.194C69.7762 177.972 74.7579 174.396 80.4135 174.396H108.27V207.321H70.92L70.9249 207.311Z" fill="#F9FAFB"/>
<path d="M68.6129 207.286H63.2876V207.228L68.6129 207.286Z" fill="#E5E7EB"/>
<path d="M39.5411 234.558V244.623H39.4016C38.5171 244.622 37.6482 244.389 36.8824 243.946C36.1167 243.503 35.4811 242.867 35.0395 242.1C34.598 241.334 34.3661 240.464 34.3672 239.58C34.3683 238.695 34.6023 237.827 35.0458 237.061C35.4897 236.3 36.1255 235.668 36.8898 235.229C37.6541 234.789 38.5201 234.558 39.4016 234.558H39.5411Z" fill="#E5E7EB"/>
<path d="M39.5411 242.36V244.629H39.4016C38.5171 244.629 37.6482 244.396 36.8824 243.953C36.1167 243.51 35.4811 242.873 35.0395 242.107C34.598 241.34 34.3661 240.471 34.3672 239.587C34.3683 238.702 34.6023 237.833 35.0458 237.068C35.2668 236.686 35.5375 236.336 35.8509 236.025C36.321 238.497 37.6233 240.732 39.5411 242.36Z" fill="#E5E7EB"/>
<path d="M38.6779 244.573C37.8639 244.453 37.0916 244.136 36.4284 243.65C35.7652 243.163 35.2314 242.521 34.8735 241.78C34.5157 241.04 34.3447 240.223 34.3756 239.4C34.4065 238.578 34.6383 237.776 35.0508 237.065C35.0259 239.921 36.4369 242.787 38.6779 244.573Z" fill="#FDFDFC"/>
<path d="M39.6542 234.346C41.8255 237.415 41.701 241.912 39.3654 244.857C39.3421 241.439 39.3123 238.021 39.6542 234.346Z" fill="#F9FAFB"/>
<path d="M225.327 161.02H110.438V247.644H225.327V161.02Z" fill="#E5E7EB"/>
<path d="M97.4221 247.972H53.3823C54.5996 243.053 57.4295 238.682 61.4206 235.558C65.4117 232.434 70.3339 230.737 75.4022 230.737C80.4705 230.737 85.3928 232.434 89.3839 235.558C93.3749 238.682 96.2048 243.053 97.4221 247.972Z" fill="#F9FAFB"/>
<path d="M213.411 247.972H168.059C168.059 238.452 178.211 230.735 190.734 230.735C203.257 230.735 213.411 238.452 213.411 247.972Z" fill="#F9FAFB"/>
<path d="M231.849 250.527C231.848 251.292 231.544 252.025 231.004 252.566C230.463 253.106 229.73 253.41 228.965 253.411H36.2394C35.4746 253.411 34.7412 253.107 34.2005 252.566C33.6597 252.025 33.356 251.292 33.356 250.527C33.356 249.762 33.6597 249.029 34.2005 248.488C34.7412 247.948 35.4746 247.644 36.2394 247.644H228.965C229.344 247.644 229.719 247.718 230.069 247.863C230.419 248.008 230.736 248.221 231.004 248.488C231.272 248.756 231.484 249.074 231.629 249.424C231.774 249.774 231.849 250.149 231.849 250.527Z" fill="#F9FAFB"/>
<path d="M75.4021 272.102C86.3037 272.102 95.1412 263.734 95.1412 253.411C95.1412 243.088 86.3037 234.719 75.4021 234.719C64.5006 234.719 55.6631 243.088 55.6631 253.411C55.6631 263.734 64.5006 272.102 75.4021 272.102Z" fill="#D1D5DB"/>
<path d="M75.4023 267.821C83.8065 267.821 90.6195 261.369 90.6195 253.411C90.6195 245.452 83.8065 239 75.4023 239C66.998 239 60.1851 245.452 60.1851 253.411C60.1851 261.369 66.998 267.821 75.4023 267.821Z" fill="#E5E7EB"/>
<path d="M75.402 265.424C82.4082 265.424 88.0878 260.045 88.0878 253.411C88.0878 246.776 82.4082 241.397 75.402 241.397C68.3959 241.397 62.7163 246.776 62.7163 253.411C62.7163 260.045 68.3959 265.424 75.402 265.424Z" fill="#D1D5DB"/>
<path d="M190.736 272.102C201.637 272.102 210.475 263.734 210.475 253.411C210.475 243.088 201.637 234.719 190.736 234.719C179.834 234.719 170.997 243.088 170.997 253.411C170.997 263.734 179.834 272.102 190.736 272.102Z" fill="#D1D5DB"/>
<path d="M190.736 267.821C199.14 267.821 205.953 261.369 205.953 253.411C205.953 245.452 199.14 239 190.736 239C182.332 239 175.519 245.452 175.519 253.411C175.519 261.369 182.332 267.821 190.736 267.821Z" fill="#E5E7EB"/>
<path d="M190.736 265.424C197.742 265.424 203.421 260.045 203.421 253.411C203.421 246.776 197.742 241.397 190.736 241.397C183.729 241.397 178.05 246.776 178.05 253.411C178.05 260.045 183.729 265.424 190.736 265.424Z" fill="#D1D5DB"/>
<path d="M65.0621 199.119H63.2876V213.313H65.0621V199.119Z" fill="#AFB3B9"/>
<path d="M63.2876 207.228H58.6396V209.381H63.2876V207.228Z" fill="#AFB3B9"/>
<path d="M70.623 207.927V195.596C70.623 195.046 70.8417 194.518 71.2308 194.129C71.6199 193.74 72.1477 193.521 72.698 193.521V207.927H70.623Z" fill="#F9FAFB"/>
<path d="M307.108 235.957H238.716V271.41H307.108V235.957Z" fill="#D1D5DB"/>
<path d="M255.399 235.957H238.716V271.41H255.399V235.957Z" fill="#AFB3B9"/>
<path d="M287.313 202.561H247.06V235.957H287.313V202.561Z" fill="#D1D5DB"/>
<path d="M257.22 202.561H247.06V235.957H257.22V202.561Z" fill="#AFB3B9"/>
<path d="M246.955 236.039L257.219 235.043L278.035 236.193L246.955 236.039Z" fill="#D1D5DB"/>
<path d="M305.071 238.999H291.099V242.279H305.071V238.999Z" fill="white"/>
<path d="M305.295 244.003H291.323V247.284H305.295V244.003Z" fill="white"/>
<path d="M285.854 204.484H276.083V207.764H285.854V204.484Z" fill="white"/>
<path d="M285.854 208.967H276.083V212.248H285.854V208.967Z" fill="white"/>
<path d="M250.919 166.594C250.919 157.298 258.254 149.772 267.305 149.772C276.355 149.772 283.694 157.303 283.694 166.594C283.694 175.885 267.974 192.892 267.974 192.892C267.974 192.892 250.919 175.885 250.919 166.594Z" fill="#AFB3B9"/>
<path d="M267.305 175.492C272.209 175.492 276.184 171.516 276.184 166.613C276.184 161.709 272.209 157.733 267.305 157.733C262.401 157.733 258.425 161.709 258.425 166.613C258.425 171.516 262.401 175.492 267.305 175.492Z" fill="#D1D5DB"/>
<path d="M158.228 215.058C158.228 214.659 158.386 214.277 158.668 213.995C158.95 213.712 159.333 213.554 159.731 213.554H217.168C217.566 213.554 217.949 213.712 218.231 213.995C218.513 214.277 218.671 214.659 218.671 215.058C218.671 215.457 218.513 215.839 218.231 216.121C217.949 216.403 217.566 216.562 217.168 216.562H159.731C159.333 216.562 158.95 216.403 158.668 216.121C158.386 215.839 158.228 215.457 158.228 215.058Z" fill="#D1D5DB"/>
<path d="M114.072 166C114.072 165.601 114.23 165.219 114.512 164.937C114.794 164.654 115.177 164.496 115.576 164.496H220.801C221.2 164.496 221.583 164.654 221.865 164.937C222.147 165.219 222.305 165.601 222.305 166C222.305 166.399 222.147 166.781 221.865 167.063C221.583 167.345 221.2 167.504 220.801 167.504H115.576C115.177 167.504 114.794 167.345 114.512 167.063C114.23 166.781 114.072 166.399 114.072 166Z" fill="#D1D5DB"/>
<path d="M180.316 220.536C180.316 220.137 180.474 219.755 180.756 219.473C181.038 219.19 181.421 219.032 181.82 219.032H216.828C217.226 219.032 217.609 219.19 217.891 219.473C218.173 219.755 218.332 220.137 218.332 220.536C218.332 220.935 218.173 221.317 217.891 221.599C217.609 221.881 217.226 222.04 216.828 222.04H181.82C181.421 222.04 181.038 221.881 180.756 221.599C180.474 221.317 180.316 220.935 180.316 220.536Z" fill="#D1D5DB"/>
<path d="M190.774 226.014C190.774 225.615 190.932 225.233 191.214 224.951C191.496 224.668 191.879 224.51 192.278 224.51H217.16C217.558 224.51 217.941 224.668 218.223 224.951C218.505 225.233 218.664 225.615 218.664 226.014C218.664 226.413 218.505 226.795 218.223 227.077C217.941 227.359 217.558 227.518 217.16 227.518H192.278C191.879 227.518 191.496 227.359 191.214 227.077C190.932 226.795 190.774 226.413 190.774 226.014Z" fill="#D1D5DB"/>
<path d="M187.814 140.024H170.175V140.157C167.699 140.128 165.214 140.163 162.718 140.262V140.024H143.406C143.043 139.195 142.882 138.292 142.935 137.388C142.989 136.485 143.256 135.607 143.715 134.827C145.111 132.534 147.865 131.341 150.534 131.145C153.203 130.949 155.871 131.6 158.474 132.246C156.44 129.027 156.887 124.444 159.508 121.688C162.129 118.932 166.674 118.233 169.996 120.094C173.317 121.955 175.105 126.193 174.117 129.872C177.388 127.606 182.187 127.88 185.183 130.498C187.809 132.8 188.828 136.708 187.814 140.024Z" fill="#D9D9D9"/>
<path d="M170.279 136.585H162.823V148.291H170.279V136.585Z" fill="#E5E7EB"/>
<path d="M166.612 128.149L160.178 137.206H173.047L166.612 128.149Z" fill="#E5E7EB"/>
</svg>
