<svg width="82" height="81" viewBox="0 0 82 81" fill="none" xmlns="http://www.w3.org/2000/svg">
<g id="Map location" clip-path="url(#clip0_951_8327)">
<g id="Group 102">
<path id="Vector" opacity="0.4" d="M78.7792 63.9795L61.8331 74.666C60.9664 75.2126 59.9904 75.5625 58.9738 75.6911C57.9572 75.8197 56.9247 75.7239 55.9492 75.4103L37.3737 69.4393C36.392 69.1238 35.3528 69.0288 34.3301 69.161C33.3074 69.2932 32.3266 69.6494 31.4574 70.2042L17.8579 78.8854C17.4406 79.149 16.9677 79.3118 16.4766 79.3608C15.9855 79.4097 15.4897 79.3436 15.0286 79.1676C14.5676 78.9916 14.1539 78.7105 13.8203 78.3467C13.4868 77.9829 13.2427 77.5464 13.1073 77.0718L1.36983 35.9237C1.18166 35.2639 1.21221 34.5609 1.45692 33.9199C1.70162 33.2789 2.14732 32.7344 2.72732 32.3678L19.8541 21.5437C20.8036 20.9436 21.8733 20.5592 22.9876 20.4177C24.1019 20.2762 25.2337 20.381 26.3031 20.7247L44.2858 26.5051C45.3591 26.8501 46.4952 26.9544 47.6133 26.8107C48.7314 26.6669 49.8042 26.2786 50.7553 25.6734L63.6333 17.4781C64.0505 17.2127 64.5238 17.0483 65.0156 16.9981C65.5075 16.9479 66.0043 17.0131 66.4665 17.1887C66.9287 17.3643 67.3435 17.6454 67.6779 18.0096C68.0123 18.3738 68.257 18.811 68.3927 19.2864L80.1282 60.4288C80.316 61.087 80.2861 61.7882 80.043 62.428C79.7999 63.0678 79.3567 63.612 78.7792 63.9795Z" fill="#CCCDCF"/>
<path id="Vector_2" d="M79.4408 59.6126L64.9702 68.8211C64.0191 69.4264 62.9463 69.8146 61.8282 69.9584C60.7101 70.1021 59.574 69.9978 58.5007 69.6529L40.5168 63.8724C39.4474 63.5287 38.3156 63.4239 37.2013 63.5654C36.087 63.7069 35.0173 64.0912 34.0678 64.6913L18.5189 74.5185C18.1017 74.7822 17.6287 74.9449 17.1376 74.9939C16.6465 75.0429 16.1508 74.9767 15.6897 74.8007C15.2286 74.6247 14.8149 74.3436 14.4814 73.9798C14.1479 73.616 13.9037 73.1795 13.7683 72.7049L2.031 31.5569C1.8428 30.8971 1.87332 30.1941 2.11801 29.553C2.36269 28.912 2.80838 28.3675 3.38837 28.0009L20.5143 17.1763C21.4638 16.5763 22.5335 16.1919 23.6478 16.0504C24.7621 15.9089 25.8939 16.0137 26.9633 16.3574L44.9471 22.138C46.0204 22.483 47.1565 22.5873 48.2746 22.4435C49.3927 22.2998 50.4655 21.9114 51.4166 21.3062L64.2946 13.111C64.7117 12.8456 65.1851 12.6812 65.6769 12.631C66.1688 12.5807 66.6656 12.646 67.1278 12.8216C67.5899 12.9972 68.0048 13.2783 68.3391 13.6425C68.6735 14.0067 68.9183 14.4439 69.054 14.9193L80.7895 56.0615C80.9774 56.7197 80.9476 57.421 80.7046 58.0609C80.4615 58.7008 80.0182 59.2451 79.4408 59.6126Z" fill="white"/>
<path id="Vector_3" d="M38.7905 59.2211L36.0998 51.6292L23.384 55.9824L19.4079 44.4621L9.05127 46.5233L16.3125 71.9789C16.3446 72.0905 16.4123 72.1886 16.5052 72.2583C16.5982 72.328 16.7113 72.3654 16.8275 72.365C16.926 72.3646 17.0223 72.3355 17.1045 72.2812L31.8872 62.9384C31.823 62.8632 38.7905 59.2211 38.7905 59.2211Z" fill="#EAF4F7"/>
<path id="Vector_4" d="M79.4408 59.6126L64.9702 68.8211C64.0191 69.4264 62.9463 69.8146 61.8282 69.9584C60.7101 70.1021 59.574 69.9978 58.5007 69.6529L40.5168 63.8724C39.4474 63.5287 38.3156 63.4239 37.2013 63.5654C36.087 63.7069 35.0173 64.0912 34.0678 64.6913L18.5189 74.5185C18.1017 74.7821 17.6287 74.9449 17.1376 74.9939C16.6465 75.0429 16.1508 74.9767 15.6897 74.8007C15.2286 74.6247 14.8149 74.3436 14.4814 73.9798C14.1479 73.616 13.9037 73.1795 13.7683 72.7049L2.031 31.5569C1.8428 30.8971 1.87332 30.1941 2.11801 29.553C2.36269 28.912 2.80838 28.3675 3.38837 28.0009L20.5143 17.1763C21.4638 16.5763 22.5335 16.1919 23.6478 16.0504C24.7621 15.9089 25.8939 16.0137 26.9633 16.3574L44.9471 22.138C46.0204 22.483 47.1565 22.5873 48.2746 22.4435C49.3927 22.2998 50.4655 21.9114 51.4166 21.3062L64.2946 13.111C64.7117 12.8456 65.1851 12.6812 65.6769 12.631C66.1688 12.5807 66.6656 12.646 67.1278 12.8216C67.5899 12.9972 68.0047 13.2783 68.3391 13.6425C68.6735 14.0067 68.9183 14.4439 69.054 14.9193L80.7895 56.0615C80.9774 56.7197 80.9476 57.421 80.7045 58.0609C80.4615 58.7008 80.0182 59.2451 79.4408 59.6126V59.6126Z" stroke="#363A5A" stroke-width="0.260766" stroke-miterlimit="10"/>
<path id="Vector_5" d="M25.4438 54.501C25.4438 54.501 25.6644 54.4436 26.0361 54.335" stroke="#363A5A" stroke-width="0.260766" stroke-linecap="round" stroke-linejoin="round"/>
<path id="Vector_6" d="M27.825 53.7624C30.4383 52.8532 34.2732 51.1849 34.3193 49.2118C34.3808 46.5903 21.6758 33.475 28.5062 32.6821C51.31 30.0353 41.0925 49.0016 51.4927 48.5777C55.8864 48.3986 47.761 42.3577 60.3148 37.9912C62.1758 37.3439 61.2512 32.611 60.6269 30.1365" stroke="#363A5A" stroke-width="0.260766" stroke-linecap="round" stroke-linejoin="round" stroke-dasharray="1.33 1.99"/>
<path id="Vector_7" d="M60.3857 29.2283C60.2818 28.857 60.2134 28.6375 60.2134 28.6375" stroke="#363A5A" stroke-width="0.260766" stroke-linecap="round" stroke-linejoin="round"/>
<path id="Vector_8" opacity="0.22" d="M24.6494 60.7526C27.925 60.7526 30.5805 58.0971 30.5805 54.8215C30.5805 51.5458 27.925 48.8904 24.6494 48.8904C21.3737 48.8904 18.7183 51.5458 18.7183 54.8215C18.7183 58.0971 21.3737 60.7526 24.6494 60.7526Z" fill="#3DC0CB"/>
<path id="Vector_9" d="M24.6493 58.2609C26.5489 58.2609 28.0887 56.721 28.0887 54.8215C28.0887 52.9219 26.5489 51.3821 24.6493 51.3821C22.7498 51.3821 21.21 52.9219 21.21 54.8215C21.21 56.721 22.7498 58.2609 24.6493 58.2609Z" fill="#3DC0CB"/>
<path id="Vector_10" d="M24.6494 51.3821C24.1221 51.3818 23.6019 51.5029 23.129 51.736C22.6561 51.9692 22.2432 52.3081 21.9224 52.7265C22.5985 52.267 23.4163 52.0633 24.229 52.1521C25.0417 52.2409 25.7962 52.6163 26.3571 53.211C26.9181 53.8058 27.2488 54.5809 27.29 55.3974C27.3312 56.2139 27.0802 57.0184 26.5819 57.6665C27.1904 57.2532 27.6503 56.6557 27.8942 55.9617C28.138 55.2677 28.153 54.5138 27.9368 53.8107C27.7206 53.1076 27.2847 52.4923 26.6931 52.0552C26.1014 51.6181 25.3852 51.3822 24.6497 51.3821H24.6494Z" fill="#64C7CF"/>
<path id="Vector_11" d="M24.6493 58.2609C26.5489 58.2609 28.0887 56.721 28.0887 54.8215C28.0887 52.9219 26.5489 51.3821 24.6493 51.3821C22.7498 51.3821 21.21 52.9219 21.21 54.8215C21.21 56.721 22.7498 58.2609 24.6493 58.2609Z" stroke="#363A5A" stroke-width="0.260766" stroke-miterlimit="10"/>
<path id="Vector_12" d="M26.2166 24.1348L36.0812 26.0046L33.8158 22.023L25.6513 19.1745C25.1791 19.0098 24.679 18.9397 24.1797 18.9682C23.6804 18.9968 23.1916 19.1234 22.7412 19.3409L4.80132 30.2381C4.70498 30.2995 4.63095 30.3903 4.5902 30.497C4.54944 30.6038 4.54411 30.7208 4.57499 30.8308L7.46818 40.9735L15.3558 39.0231L13.9072 33.2126L26.2166 24.1348Z" fill="#87D5F7" stroke="#259AD6" stroke-width="0.260766" stroke-linecap="round" stroke-linejoin="round"/>
<path id="Vector_13" d="M41.8501 49.2525L47.4793 50.6698L50.2008 56.9072L44.1367 55.9132L41.8501 49.2525Z" fill="#FDDCBF" stroke="#ECB072" stroke-width="0.260766" stroke-linecap="round" stroke-linejoin="round"/>
<path id="Vector_14" d="M60.3177 30.5678C55.7447 30.5678 52.0376 29.2415 52.0376 27.6055C52.0376 25.9695 55.7447 24.6432 60.3177 24.6432C64.8907 24.6432 68.5976 25.9695 68.5976 27.6055C68.5976 29.2415 64.8906 30.5678 60.3177 30.5678Z" fill="#EAF4F7"/>
<path id="Vector_15" d="M62.9157 47.352L73.2448 42.8557L77.3252 55.2871L60.5994 64.7922L57.5337 56.1402L64.0738 52.4615L62.9157 47.352Z" fill="#FDDCBF" stroke="#ECB072" stroke-width="0.260766" stroke-linecap="round" stroke-linejoin="round"/>
<path id="Vector_16" d="M72.5087 13.1618C72.5087 6.04817 66.7348 0.319882 59.7385 0.652424C53.4741 0.950259 48.1338 6.28693 48.1338 12.7288C48.1338 22.0475 60.318 29.2328 60.318 29.2328C60.318 29.2328 72.5087 22.0475 72.5087 13.1618Z" fill="#EE4637"/>
<path id="Vector_17" d="M64.768 25.6269C63.8073 26.3764 62.6227 26.7816 61.4041 26.7774C60.1856 26.7732 59.0038 26.3599 58.0483 25.6038C54.4422 22.7485 49.2268 17.5643 49.2268 11.4677C49.2358 8.87913 50.092 6.36468 51.6646 4.30856C49.5019 6.49261 48.1338 9.46899 48.1338 12.7288C48.1338 22.0475 60.318 29.2328 60.318 29.2328C60.318 29.2328 65.2869 26.3037 68.8802 21.8731C67.6119 23.2321 66.2368 24.4874 64.768 25.6269Z" fill="#CD3C27"/>
<path id="Vector_18" d="M59.7385 0.652424C57.542 0.765593 55.4183 1.47731 53.5972 2.71056C55.0313 2.019 56.5895 1.62206 58.1796 1.54322C65.176 1.21093 70.9499 6.93884 70.9499 14.0526C70.9499 21.0197 63.4555 26.9412 60.219 29.1736C60.2823 29.2123 60.3174 29.2332 60.3174 29.2332C60.3174 29.2332 72.5084 22.0475 72.5084 13.1618C72.5086 6.04817 66.7348 0.319882 59.7385 0.652424Z" fill="#F07378"/>
<path id="Vector_19" d="M60.3178 17.9522C59.3258 17.9523 58.356 17.6581 57.5311 17.107C56.7062 16.5558 56.0633 15.7724 55.6836 14.8559C55.304 13.9394 55.2046 12.9308 55.3981 11.9578C55.5917 10.9848 56.0694 10.091 56.7709 9.38953C57.4723 8.68803 58.3661 8.21029 59.3391 8.01674C60.3121 7.82319 61.3206 7.92251 62.2372 8.30216C63.1537 8.6818 63.9371 9.3247 64.4883 10.1496C65.0395 10.9744 65.3336 11.9442 65.3336 12.9363C65.3336 14.2666 64.8052 15.5424 63.8646 16.4831C62.9239 17.4237 61.6481 17.9522 60.3178 17.9522Z" fill="white"/>
<path id="Vector_20" d="M60.3178 17.9522C59.3258 17.9523 58.356 17.6581 57.5311 17.107C56.7062 16.5558 56.0633 15.7724 55.6836 14.8559C55.304 13.9394 55.2046 12.9308 55.3981 11.9578C55.5917 10.9848 56.0694 10.091 56.7709 9.38953C57.4723 8.68803 58.3661 8.21029 59.3391 8.01674C60.3121 7.82319 61.3206 7.92251 62.2372 8.30216C63.1537 8.6818 63.9371 9.3247 64.4883 10.1496C65.0395 10.9744 65.3336 11.9442 65.3336 12.9363C65.3336 14.2666 64.8052 15.5424 63.8646 16.4831C62.9239 17.4237 61.6481 17.9522 60.3178 17.9522Z" stroke="#363A5A" stroke-width="0.260766" stroke-miterlimit="10"/>
<path id="Vector_21" d="M72.5087 13.1618C72.5087 6.04817 66.7348 0.319882 59.7385 0.652424C53.4741 0.950259 48.1338 6.28693 48.1338 12.7288C48.1338 22.0475 60.318 29.2328 60.318 29.2328C60.318 29.2328 72.5087 22.0475 72.5087 13.1618Z" stroke="#363A5A" stroke-width="0.260766" stroke-linecap="round" stroke-linejoin="round"/>
</g>
</g>
<defs>
<clipPath id="clip0_951_8327">
<rect width="81.194" height="80" fill="white" transform="translate(0.233887 0.343292)"/>
</clipPath>
</defs>
</svg>
