<svg width="144" height="52" viewBox="0 0 144 52" fill="none" xmlns="http://www.w3.org/2000/svg">
<path d="M63.0701 12.9736H52.4629V28.3294H55.2171V15.3557H62.9212C69.8437 15.3557 74.31 19.7473 74.31 25.9999C74.31 32.2525 69.8437 36.6444 62.9212 36.6444H52.4629V39.0265H63.0701C71.4069 39.0265 77.0266 33.6669 77.0266 25.9999C77.0266 18.3332 71.4069 12.9736 63.0701 12.9736Z" fill="#404041"/>
<path d="M96.3411 30.094C100.137 28.866 102.296 25.9999 102.296 21.9061C102.296 16.3234 98.2766 12.9736 91.6518 12.9736H81.9004V15.3557H91.577C96.7879 15.3557 99.542 17.7376 99.542 21.9061C99.542 25.9999 96.7879 28.4194 91.577 28.4194H81.9004V39.0265H84.6549V30.7638H91.6518C92.3962 30.7638 93.066 30.7267 93.7359 30.6524L99.6909 39.0265H102.705L96.3411 30.094Z" fill="#404041"/>
<path d="M108.025 12.9736H110.779V39.0265H108.025V12.9736Z" fill="#404041"/>
<path d="M116.176 25.9999C116.176 18.4077 121.982 12.7505 129.872 12.7505C137.688 12.7505 143.531 18.3702 143.531 25.9999C143.531 33.6297 137.688 39.2497 129.872 39.2497C121.982 39.2497 116.176 33.5927 116.176 25.9999ZM140.777 25.9999C140.777 19.7848 136.125 15.2068 129.872 15.2068C123.582 15.2068 118.893 19.7848 118.893 25.9999C118.893 32.2153 123.582 36.7934 129.872 36.7934C136.125 36.7934 140.777 32.2153 140.777 25.9999Z" fill="#404041"/>
<path d="M24.1424 14.812C22.2328 14.812 20.6797 16.3653 20.6797 18.2747C20.6797 20.1838 22.2328 21.7372 24.1424 21.7372C26.0518 21.7372 27.6049 20.1838 27.6049 18.2747C27.6049 16.3654 26.0518 14.812 24.1424 14.812Z" fill="#404041"/>
<path d="M14.4856 23.8701C13.2777 23.8701 12.2949 24.8527 12.2949 26.0608C12.2949 27.2686 13.2777 28.2514 14.4856 28.2514C15.6936 28.2514 16.6762 27.2686 16.6762 26.0608C16.6763 24.8527 15.6936 23.8701 14.4856 23.8701Z" fill="#404041"/>
<path d="M34.0538 23.8701C32.8458 23.8701 31.8633 24.8527 31.8633 26.0608C31.8633 27.2686 32.8456 28.2514 34.0538 28.2514C35.2616 28.2514 36.2446 27.2686 36.2446 26.0608C36.2446 24.8527 35.2616 23.8701 34.0538 23.8701Z" fill="#404041"/>
<path d="M27.1855 21.7404L31.0154 24.6683C31.2454 24.1683 31.5947 23.7355 32.0272 23.4048L28.2006 20.4795C27.9388 20.9581 27.5926 21.3828 27.1855 21.7404Z" fill="#404041"/>
<path d="M17.5619 27.3779C17.3443 27.8837 17.0054 28.3245 16.582 28.6656L20.243 31.464C20.5356 31.0025 20.9072 30.5978 21.3394 30.2654L17.5619 27.3779Z" fill="#404041"/>
<path d="M30.9983 27.4194L27.1094 30.3924C27.5244 30.7412 27.8754 31.1628 28.1471 31.6355L31.9954 28.6936C31.5671 28.3579 31.2227 27.922 30.9983 27.4194Z" fill="#404041"/>
<path d="M48.0701 26.0609C48.0701 24.536 47.0785 23.2412 45.7074 22.7804V19.2567C45.7074 17.791 44.9259 16.4169 43.6671 15.6675L26.5573 2.6065C26.4869 1.46185 25.5359 0.55127 24.3736 0.55127C23.3284 0.55127 22.4534 1.28744 22.236 2.26773C22.1749 2.29923 22.1138 2.33058 22.0541 2.36471L22.0222 2.38323L4.618 15.6675C3.35902 16.4169 2.57735 17.791 2.57735 19.2567V22.874C1.33937 23.4022 0.46875 24.6317 0.46875 26.0609C0.46875 27.4897 1.33937 28.7193 2.57735 29.2473V32.8646C2.57735 34.3302 3.35902 35.7045 4.618 36.4535L21.9802 49.7075L22.0546 49.7565C22.126 49.7976 22.1986 49.8358 22.2721 49.8725C22.5386 50.7821 23.379 51.449 24.3736 51.449C25.4926 51.449 26.4167 50.6052 26.5468 49.5205L43.6669 36.4535C44.9258 35.7044 45.7073 34.3301 45.7073 32.8646V29.3412C47.0785 28.8801 48.0701 27.5853 48.0701 26.0609ZM37.1508 27.3223C36.9422 27.8323 36.6122 28.2805 36.1953 28.6286L43.636 34.3166C43.4206 34.6293 43.1386 34.8908 42.8112 35.0796L35.2125 40.8719L28.4146 35.6751C28.2058 36.1835 27.9069 36.6444 27.5404 37.0433L33.88 41.8896L26.059 47.8602C25.82 47.5725 25.5086 47.349 25.1537 47.213V38.4296C24.8279 38.5028 24.4901 38.5446 24.1426 38.5446C23.9365 38.5446 23.7349 38.5263 23.5359 38.5002V47.2344C23.1171 47.4085 22.7652 47.7092 22.5247 48.0881L14.5692 42.0146L20.8791 37.191C20.4966 36.8088 20.1848 36.3576 19.9546 35.861L13.2363 40.9971L5.54871 35.1292L5.47433 35.0801C5.20658 34.9256 4.97092 34.7218 4.77215 34.4731L12.3792 28.6574C11.9576 28.3147 11.6202 27.8726 11.4048 27.3661L4.19537 32.877C4.19537 32.8729 4.19537 32.8685 4.19537 32.8646V29.5101C5.98125 29.3744 7.39379 27.881 7.39379 26.061C7.39379 24.2406 5.98125 22.7474 4.19537 22.6118V19.2567C4.19537 19.2372 4.19567 19.2178 4.19625 19.1977L11.4213 24.721C11.6425 24.2171 11.9845 23.7786 12.4103 23.4407L4.79504 17.6189C4.98915 17.3838 5.21679 17.1898 5.47419 17.0412L13.2669 11.1006L19.9995 16.2473C20.2404 15.7567 20.564 15.315 20.9547 14.9409L14.5999 10.0831L22.5772 3.9925C22.8154 4.33331 23.147 4.60369 23.5358 4.76556V13.7008C23.7347 13.675 23.9364 13.6566 24.1425 13.6566C24.49 13.6566 24.8276 13.6981 25.1535 13.7716V4.787C25.478 4.66246 25.7646 4.46427 25.994 4.21139L33.8491 10.2085L27.4724 15.0831C27.8466 15.4738 28.154 15.9282 28.374 16.4303L35.182 11.226L42.7364 16.9922L42.8107 17.0411C43.1254 17.2228 43.3998 17.4745 43.6133 17.7755L36.1663 23.4685C36.587 23.812 36.9231 24.2553 37.1375 24.7622L44.0897 19.4475V22.6412C42.4259 22.8925 41.1453 24.3279 41.1453 26.061C41.1453 27.7937 42.4259 29.2291 44.0897 29.4804V32.6269L37.1508 27.3223Z" fill="#C44240"/>
<path d="M20.1903 20.6499L16.5508 23.4324C16.9787 23.7688 17.3221 24.2058 17.5451 24.7089L21.2549 21.8724C20.8319 21.5319 20.4722 21.1174 20.1903 20.6499Z" fill="#404041"/>
<path d="M25.1529 22.7773C24.8271 22.8507 24.4893 22.8924 24.1418 22.8924C23.9358 22.8924 23.7341 22.8742 23.5352 22.8482V29.3528C23.7341 29.3269 23.9358 29.3085 24.1418 29.3085C24.4893 29.3085 24.827 29.3501 25.1529 29.4236V22.7773Z" fill="#404041"/>
<path d="M24.1424 30.4639C22.2328 30.4639 20.6797 32.0173 20.6797 33.9265C20.6797 35.8361 22.2328 37.3891 24.1424 37.3891C26.0518 37.3891 27.6049 35.8361 27.6049 33.9265C27.6049 32.0174 26.0518 30.4639 24.1424 30.4639Z" fill="#404041"/>
</svg>
